Thin.ufo
<glyph name="exclam" format="2">
  <advance width="600"/>
  <unicode hex="0021"/>
  <outline>
    <contour>
      <point x="250" y="440" type="line"/>
      <point x="230" y="1400" type="line"/>
      <point x="370" y="1400" type="line"/>
      <point x="350" y="440" type="line"/>
    </contour>
    <contour>
      <point x="300" y="-30" type="qcurve"/>
      <point x="254" y="-30"/>
      <point x="190" y="29"/>
      <point x="190" y="74" type="qcurve"/>
      <point x="190" y="104"/>
      <point x="219" y="151"/>
      <point x="269" y="178"/>
      <point x="300" y="178" type="qcurve"/>
      <point x="347" y="178"/>
      <point x="410" y="119"/>
      <point x="410" y="74" type="qcurve"/>
      <point x="410" y="44"/>
      <point x="381" y="-3"/>
      <point x="331" y="-30"/>
    </contour>
  </outline>
</glyph>
<glyph name="dollar" format="2">
  <advance width="1296"/>
  <unicode hex="0024"/>
  <anchor x="666" y="1400" name="top"/>
  <anchor x="654" y="0" name="bottom"/>
  <outline>
    <contour>
      <point x="654" y="-30" type="qcurve"/>
      <point x="527" y="-30"/>
      <point x="282" y="40"/>
      <point x="199" y="107" type="qcurve"/>
      <point x="264" y="204" type="line"/>
      <point x="316" y="163"/>
      <point x="441" y="107"/>
      <point x="581" y="78"/>
      <point x="654" y="78" type="qcurve"/>
      <point x="816" y="78"/>
      <point x="1014" y="217"/>
      <point x="1014" y="352" type="qcurve"/>
      <point x="1014" y="454"/>
      <point x="877" y="585"/>
      <point x="712" y="636" type="qcurve"/>
      <point x="552" y="686" type="line"/>
      <point x="396" y="734"/>
      <point x="212" y="897"/>
      <point x="212" y="1042" type="qcurve"/>
      <point x="212" y="1163"/>
      <point x="331" y="1337"/>
      <point x="540" y="1430"/>
      <point x="676" y="1430" type="qcurve"/>
      <point x="795" y="1430"/>
      <point x="1001" y="1358"/>
      <point x="1071" y="1299" type="qcurve"/>
      <point x="1006" y="1208" type="line"/>
      <point x="937" y="1264"/>
      <point x="754" y="1324"/>
      <point x="656" y="1324" type="qcurve"/>
      <point x="557" y="1324"/>
      <point x="405" y="1261"/>
      <point x="320" y="1139"/>
      <point x="320" y="1050" type="qcurve"/>
      <point x="320" y="948"/>
      <point x="460" y="830"/>
      <point x="620" y="780" type="qcurve"/>
      <point x="794" y="726" type="line"/>
      <point x="952" y="678"/>
      <point x="1122" y="507"/>
      <point x="1122" y="360" type="qcurve"/>
      <point x="1122" y="244"/>
      <point x="1015" y="68"/>
      <point x="806" y="-30"/>
    </contour>
    <contour>
      <point x="616" y="-160" type="line"/>
      <point x="616" y="1560" type="line"/>
      <point x="716" y="1560" type="line"/>
      <point x="716" y="-160" type="line"/>
    </contour>
  </outline>
</glyph>
<glyph name="ampersand" format="2">
  <advance width="1462"/>
  <unicode hex="0026"/>
  <outline>
    <contour>
      <point x="560" y="-30" type="qcurve"/>
      <point x="431" y="-30"/>
      <point x="233" y="70"/>
      <point x="120" y="245"/>
      <point x="120" y="358" type="qcurve"/>
      <point x="120" y="448"/>
      <point x="208" y="606"/>
      <point x="370" y="728"/>
      <point x="482" y="764" type="qcurve"/>
      <point x="408" y="836"/>
      <point x="324" y="946"/>
      <point x="290" y="1050"/>
      <point x="290" y="1114" type="qcurve"/>
      <point x="290" y="1200"/>
      <point x="387" y="1344"/>
      <point x="547" y="1430"/>
      <point x="642" y="1430" type="qcurve"/>
      <point x="745" y="1430"/>
      <point x="906" y="1347"/>
      <point x="998" y="1202"/>
      <point x="998" y="1108" type="qcurve"/>
      <point x="998" y="990"/>
      <point x="819" y="805"/>
      <point x="654" y="736" type="qcurve"/>
      <point x="1034" y="348" type="line"/>
      <point x="1094" y="425"/>
      <point x="1201" y="637"/>
      <point x="1246" y="776" type="qcurve"/>
      <point x="1348" y="730" type="line"/>
      <point x="1319" y="644"/>
      <point x="1244" y="483"/>
      <point x="1154" y="337"/>
      <point x="1104" y="274" type="qcurve"/>
      <point x="1368" y="0" type="line"/>
      <point x="1216" y="0" type="line"/>
      <point x="1038" y="186" type="line"/>
      <point x="933" y="81"/>
      <point x="688" y="-30"/>
    </contour>
    <contour>
      <point x="562" y="78" type="qcurve"/>
      <point x="676" y="78"/>
      <point x="879" y="169"/>
      <point x="966" y="262" type="qcurve"/>
      <point x="550" y="692" type="line"/>
      <point x="400" y="644"/>
      <point x="240" y="471"/>
      <point x="240" y="358" type="qcurve"/>
      <point x="240" y="229"/>
      <point x="412" y="78"/>
    </contour>
    <contour>
      <point x="586" y="806" type="qcurve"/>
      <point x="732" y="859"/>
      <point x="878" y="1010"/>
      <point x="878" y="1104" type="qcurve"/>
      <point x="878" y="1199"/>
      <point x="747" y="1322"/>
      <point x="646" y="1322" type="qcurve"/>
      <point x="546" y="1322"/>
      <point x="410" y="1202"/>
      <point x="410" y="1110" type="qcurve"/>
      <point x="410" y="1034"/>
      <point x="486" y="905"/>
    </contour>
  </outline>
</glyph>
<glyph name="parenleft" format="2">
  <advance width="666"/>
  <unicode hex="0028"/>
  <outline>
    <contour>
      <point x="442" y="-230" type="line"/>
      <point x="318" y="-29"/>
      <point x="194" y="448"/>
      <point x="194" y="692" type="qcurve"/>
      <point x="194" y="855"/>
      <point x="249" y="1176"/>
      <point x="359" y="1477"/>
      <point x="442" y="1610" type="qcurve"/>
      <point x="522" y="1568" type="line"/>
      <point x="466" y="1480"/>
      <point x="381" y="1275"/>
      <point x="324" y="1051"/>
      <point x="296" y="815"/>
      <point x="296" y="696" type="qcurve"/>
      <point x="296" y="458"/>
      <point x="410" y="-5"/>
      <point x="522" y="-188" type="qcurve"/>
    </contour>
  </outline>
</glyph>
<glyph name="comma" format="2">
  <advance width="500"/>
  <unicode hex="002C"/>
  <outline>
    <contour>
      <point x="144" y="-246" type="qcurve"/>
      <point x="86" y="-177" type="line"/>
      <point x="148" y="-142"/>
      <point x="242" y="-54"/>
      <point x="252" y="-14" type="qcurve"/>
      <point x="221" y="-16"/>
      <point x="171" y="7"/>
      <point x="142" y="51"/>
      <point x="142" y="80" type="qcurve"/>
      <point x="142" y="122"/>
      <point x="201" y="178"/>
      <point x="246" y="178" type="qcurve"/>
      <point x="297" y="178"/>
      <point x="358" y="110"/>
      <point x="358" y="47" type="qcurve"/>
      <point x="358" y="0"/>
      <point x="308" y="-104"/>
      <point x="213" y="-204"/>
    </contour>
  </outline>
</glyph>
<glyph name="zero" format="2">
  <advance width="1348"/>
  <unicode hex="0030"/>
  <outline>
    <contour>
      <point x="674" y="-30" type="qcurve"/>
      <point x="547" y="-30"/>
      <point x="342" y="84"/>
      <point x="197" y="286"/>
      <point x="120" y="550"/>
      <point x="120" y="700" type="qcurve"/>
      <point x="120" y="851"/>
      <point x="197" y="1115"/>
      <point x="342" y="1316"/>
      <point x="547" y="1430"/>
      <point x="674" y="1430" type="qcurve"/>
      <point x="800" y="1430"/>
      <point x="1004" y="1316"/>
      <point x="1150" y="1115"/>
      <point x="1228" y="851"/>
      <point x="1228" y="700" type="qcurve"/>
      <point x="1228" y="550"/>
      <point x="1150" y="286"/>
      <point x="1004" y="84"/>
      <point x="800" y="-30"/>
    </contour>
    <contour>
      <point x="674" y="82" type="qcurve"/>
      <point x="770" y="82"/>
      <point x="928" y="169"/>
      <point x="1042" y="331"/>
      <point x="1104" y="559"/>
      <point x="1104" y="700" type="qcurve"/>
      <point x="1104" y="888"/>
      <point x="996" y="1166"/>
      <point x="802" y="1318"/>
      <point x="674" y="1318" type="qcurve"/>
      <point x="578" y="1318"/>
      <point x="420" y="1231"/>
      <point x="306" y="1069"/>
      <point x="244" y="841"/>
      <point x="244" y="700" type="qcurve"/>
      <point x="244" y="512"/>
      <point x="352" y="234"/>
      <point x="546" y="82"/>
    </contour>
  </outline>
</glyph>
<glyph name="three" format="2">
  <advance width="1156"/>
  <unicode hex="0033"/>
  <outline>
    <contour>
      <point x="522" y="-30" type="qcurve"/>
      <point x="441" y="-30"/>
      <point x="283" y="1"/>
      <point x="146" y="57"/>
      <point x="98" y="94" type="qcurve"/>
      <point x="148" y="200" type="line"/>
      <point x="219" y="146"/>
      <point x="420" y="82"/>
      <point x="516" y="82" type="qcurve"/>
      <point x="632" y="82"/>
      <point x="802" y="162"/>
      <point x="894" y="308"/>
      <point x="894" y="408" type="qcurve"/>
      <point x="894" y="557"/>
      <point x="677" y="724"/>
      <point x="494" y="724" type="qcurve"/>
      <point x="454" y="724"/>
      <point x="370" y="715"/>
      <point x="326" y="706" type="qcurve"/>
      <point x="284" y="792" type="line"/>
      <point x="794" y="1292" type="line"/>
      <point x="104" y="1292" type="line"/>
      <point x="104" y="1400" type="line"/>
      <point x="954" y="1400" type="line"/>
      <point x="954" y="1300" type="line"/>
      <point x="456" y="818" type="line"/>
      <point x="607" y="828"/>
      <point x="863" y="745"/>
      <point x="1018" y="556"/>
      <point x="1018" y="408" type="qcurve"/>
      <point x="1018" y="275"/>
      <point x="891" y="78"/>
      <point x="667" y="-30"/>
    </contour>
  </outline>
</glyph>
<glyph name="six" format="2">
  <advance width="1268"/>
  <unicode hex="0036"/>
  <outline>
    <contour>
      <point x="664" y="-30" type="qcurve"/>
      <point x="509" y="-30"/>
      <point x="273" y="117"/>
      <point x="140" y="401"/>
      <point x="140" y="606" type="qcurve"/>
      <point x="140" y="780"/>
      <point x="251" y="1094"/>
      <point x="476" y="1329"/>
      <point x="816" y="1446"/>
      <point x="1044" y="1423" type="qcurve"/>
      <point x="1044" y="1309" type="line"/>
      <point x="853" y="1335"/>
      <point x="562" y="1247"/>
      <point x="362" y="1058"/>
      <point x="256" y="800"/>
      <point x="250" y="655" type="qcurve"/>
      <point x="315" y="763"/>
      <point x="547" y="892"/>
      <point x="688" y="892" type="qcurve"/>
      <point x="822" y="892"/>
      <point x="1040" y="779"/>
      <point x="1168" y="578"/>
      <point x="1168" y="446" type="qcurve"/>
      <point x="1168" y="346"/>
      <point x="1094" y="172"/>
      <point x="960" y="43"/>
      <point x="775" y="-30"/>
    </contour>
    <contour>
      <point x="664" y="84" type="qcurve"/>
      <point x="775" y="84"/>
      <point x="946" y="173"/>
      <point x="1044" y="329"/>
      <point x="1044" y="430" type="qcurve"/>
      <point x="1044" y="529"/>
      <point x="943" y="686"/>
      <point x="771" y="778"/>
      <point x="664" y="778" type="qcurve"/>
      <point x="557" y="778"/>
      <point x="385" y="686"/>
      <point x="284" y="529"/>
      <point x="284" y="430" type="qcurve"/>
      <point x="284" y="329"/>
      <point x="381" y="173"/>
      <point x="553" y="84"/>
    </contour>
  </outline>
</glyph>
<glyph name="nine" format="2">
  <advance width="1248"/>
  <unicode hex="0039"/>
  <outline>
    <contour>
      <point x="214" y="-23" type="qcurve"/>
      <point x="214" y="91" type="line"/>
      <point x="403" y="65"/>
      <point x="690" y="155"/>
      <point x="888" y="350"/>
      <point x="992" y="616"/>
      <point x="998" y="765" type="qcurve"/>
      <point x="935" y="657"/>
      <point x="708" y="528"/>
      <point x="570" y="528" type="qcurve"/>
      <point x="439" y="528"/>
      <point x="226" y="641"/>
      <point x="100" y="843"/>
      <point x="100" y="974" type="qcurve"/>
      <point x="100" y="1103"/>
      <point x="226" y="1309"/>
      <point x="449" y="1430"/>
      <point x="594" y="1430" type="qcurve"/>
      <point x="746" y="1430"/>
      <point x="978" y="1286"/>
      <point x="1108" y="1011"/>
      <point x="1108" y="814" type="qcurve"/>
      <point x="1108" y="636"/>
      <point x="998" y="314"/>
      <point x="776" y="73"/>
      <point x="440" y="-47"/>
    </contour>
    <contour>
      <point x="594" y="642" type="qcurve"/>
      <point x="698" y="642"/>
      <point x="866" y="731"/>
      <point x="964" y="884"/>
      <point x="964" y="980" type="qcurve"/>
      <point x="964" y="1079"/>
      <point x="869" y="1230"/>
      <point x="702" y="1316"/>
      <point x="594" y="1316" type="qcurve"/>
      <point x="486" y="1316"/>
      <point x="319" y="1230"/>
      <point x="224" y="1079"/>
      <point x="224" y="980" type="qcurve"/>
      <point x="224" y="884"/>
      <point x="322" y="731"/>
      <point x="490" y="642"/>
    </contour>
  </outline>
</glyph>
<glyph name="B" format="2">
  <advance width="1220"/>
  <unicode hex="0042"/>
  <outline>
    <contour>
      <point x="200" y="0" type="line"/>
      <point x="200" y="1400" type="line"/>
      <point x="618" y="1400" type="line"/>
      <point x="807" y="1400"/>
      <point x="1046" y="1221"/>
      <point x="1046" y="1048" type="qcurve"/>
      <point x="1046" y="979"/>
      <point x="973" y="849"/>
      <point x="863" y="753"/>
      <point x="808" y="736" type="qcurve"/>
      <point x="925" y="705"/>
      <point x="1090" y="520"/>
      <point x="1090" y="376" type="qcurve"/>
      <point x="1090" y="270"/>
      <point x="983" y="100"/>
      <point x="785" y="0"/>
      <point x="650" y="0" type="qcurve"/>
    </contour>
    <contour>
      <point x="316" y="108" type="line"/>
      <point x="622" y="108" type="line"/>
      <point x="801" y="108"/>
      <point x="974" y="244"/>
      <point x="974" y="386" type="qcurve"/>
      <point x="974" y="526"/>
      <point x="795" y="670"/>
      <point x="604" y="670" type="qcurve"/>
      <point x="316" y="670" type="line"/>
    </contour>
    <contour>
      <point x="316" y="778" type="line"/>
      <point x="594" y="778" type="line"/>
      <point x="695" y="778"/>
      <point x="846" y="842"/>
      <point x="930" y="962"/>
      <point x="930" y="1046" type="qcurve"/>
      <point x="930" y="1166"/>
      <point x="754" y="1292"/>
      <point x="592" y="1292" type="qcurve"/>
      <point x="316" y="1292" type="line"/>
    </contour>
  </outline>
</glyph>
<glyph name="C" format="2">
  <advance width="1392"/>
  <unicode hex="0043"/>
  <anchor x="786" y="1400" name="top"/>
  <anchor x="786" y="0" name="bottom"/>
  <outline>
    <contour>
      <point x="826" y="-30" type="qcurve"/>
      <point x="609" y="-30"/>
      <point x="288" y="153"/>
      <point x="112" y="483"/>
      <point x="112" y="702" type="qcurve"/>
      <point x="112" y="860"/>
      <point x="217" y="1125"/>
      <point x="409" y="1322"/>
      <point x="670" y="1430"/>
      <point x="826" y="1430" type="qcurve"/>
      <point x="970" y="1430"/>
      <point x="1199" y="1358"/>
      <point x="1278" y="1292" type="qcurve"/>
      <point x="1210" y="1198" type="line"/>
      <point x="1137" y="1260"/>
      <point x="949" y="1320"/>
      <point x="836" y="1320" type="qcurve"/>
      <point x="700" y="1320"/>
      <point x="477" y="1234"/>
      <point x="318" y="1073"/>
      <point x="232" y="845"/>
      <point x="232" y="702" type="qcurve"/>
      <point x="232" y="505"/>
      <point x="384" y="228"/>
      <point x="662" y="82"/>
      <point x="850" y="82" type="qcurve"/>
      <point x="967" y="82"/>
      <point x="1176" y="151"/>
      <point x="1266" y="230" type="qcurve"/>
      <point x="1322" y="130" type="line"/>
      <point x="1216" y="46"/>
      <point x="969" y="-30"/>
    </contour>
  </outline>
</glyph>
<glyph name="P" format="2">
  <advance width="1220"/>
  <unicode hex="0050"/>
  <outline>
    <contour>
      <point x="200" y="0" type="line"/>
      <point x="200" y="1400" type="line"/>
      <point x="652" y="1400" type="line"/>
      <point x="794" y="1400"/>
      <point x="1009" y="1304"/>
      <point x="1130" y="1125"/>
      <point x="1130" y="1000" type="qcurve"/>
      <point x="1130" y="871"/>
      <point x="1018" y="695"/>
      <point x="804" y="604"/>
      <point x="650" y="604" type="qcurve"/>
      <point x="316" y="604" type="line"/>
      <point x="316" y="0" type="line"/>
    </contour>
    <contour>
      <point x="316" y="712" type="line"/>
      <point x="664" y="712" type="line"/>
      <point x="831" y="712"/>
      <point x="1014" y="857"/>
      <point x="1014" y="996" type="qcurve"/>
      <point x="1014" y="1131"/>
      <point x="828" y="1292"/>
      <point x="666" y="1292" type="qcurve"/>
      <point x="316" y="1292" type="line"/>
    </contour>
  </outline>
</glyph>
<glyph name="Q" format="2">
  <advance width="1676"/>
  <unicode hex="0051"/>
  <outline>
    <contour>
      <point x="1375" y="0" type="line"/>
      <point x="1280" y="114" type="line"/>
      <point x="1189" y="47"/>
      <point x="964" y="-30"/>
      <point x="838" y="-30" type="qcurve"/>
      <point x="684" y="-30"/>
      <point x="419" y="81"/>
      <point x="222" y="279"/>
      <point x="112" y="545"/>
      <point x="112" y="700" type="qcurve"/>
      <point x="112" y="856"/>
      <point x="222" y="1122"/>
      <point x="419" y="1320"/>
      <point x="684" y="1430"/>
      <point x="838" y="1430" type="qcurve"/>
      <point x="991" y="1430"/>
      <point x="1255" y="1318"/>
      <point x="1453" y="1118"/>
      <point x="1564" y="853"/>
      <point x="1564" y="700" type="qcurve"/>
      <point x="1564" y="546"/>
      <point x="1452" y="279"/>
      <point x="1354" y="180" type="qcurve"/>
      <point x="1508" y="0" type="line"/>
    </contour>
    <contour>
      <point x="838" y="82" type="qcurve"/>
      <point x="943" y="82"/>
      <point x="1130" y="143"/>
      <point x="1206" y="200" type="qcurve"/>
      <point x="932" y="515" type="line"/>
      <point x="1066" y="514" type="line"/>
      <point x="1282" y="266" type="line"/>
      <point x="1357" y="347"/>
      <point x="1444" y="567"/>
      <point x="1444" y="700" type="qcurve"/>
      <point x="1444" y="886"/>
      <point x="1281" y="1164"/>
      <point x="1006" y="1318"/>
      <point x="838" y="1318" type="qcurve"/>
      <point x="712" y="1318"/>
      <point x="492" y="1230"/>
      <point x="326" y="1067"/>
      <point x="232" y="840"/>
      <point x="232" y="700" type="qcurve"/>
      <point x="232" y="514"/>
      <point x="395" y="236"/>
      <point x="670" y="82"/>
    </contour>
  </outline>
</glyph>
<glyph name="U" format="2">
  <advance width="1444"/>
  <unicode hex="0055"/>
  <anchor x="722" y="1400" name="top"/>
  <anchor x="1254" y="1400" name="horn"/>
  <anchor x="722" y="0" name="bottom"/>
  <outline>
    <contour>
      <point x="722" y="-30" type="qcurve"/>
      <point x="544" y="-30"/>
      <point x="308" y="119"/>
      <point x="190" y="367"/>
      <point x="190" y="516" type="qcurve"/>
      <point x="190" y="1400" type="line"/>
      <point x="306" y="1400" type="line"/>
      <point x="306" y="532" type="line"/>
      <point x="306" y="306"/>
      <point x="533" y="82"/>
      <point x="722" y="82" type="qcurve"/>
      <point x="911" y="82"/>
      <point x="1138" y="306"/>
      <point x="1138" y="532" type="qcurve"/>
      <point x="1138" y="1400" type="line"/>
      <point x="1254" y="1400" type="line"/>
      <point x="1254" y="516" type="line"/>
      <point x="1254" y="367"/>
      <point x="1136" y="119"/>
      <point x="900" y="-30"/>
    </contour>
  </outline>
</glyph>
<glyph name="f" format="2">
  <advance width="714"/>
  <unicode hex="0066"/>
  <outline>
    <contour>
      <point x="280" y="0" type="line"/>
      <point x="280" y="1192" type="line"/>
      <point x="280" y="1324"/>
      <point x="427" y="1470"/>
      <point x="548" y="1470" type="qcurve"/>
      <point x="598" y="1470"/>
      <point x="670" y="1447"/>
      <point x="694" y="1432" type="qcurve"/>
      <point x="662" y="1334" type="line"/>
      <point x="632" y="1349"/>
      <point x="576" y="1362"/>
      <point x="550" y="1362" type="qcurve"/>
      <point x="481" y="1362"/>
      <point x="390" y="1288"/>
      <point x="390" y="1190" type="qcurve"/>
      <point x="390" y="960" type="line"/>
      <point x="660" y="960" type="line"/>
      <point x="660" y="856" type="line"/>
      <point x="390" y="856" type="line"/>
      <point x="390" y="0" type="line"/>
    </contour>
    <contour>
      <point x="60" y="856" type="line"/>
      <point x="60" y="960" type="line"/>
      <point x="306" y="960" type="line"/>
      <point x="306" y="856" type="line"/>
    </contour>
  </outline>
</glyph>
<glyph name="g" format="2">
  <advance width="1168"/>
  <unicode hex="0067"/>
  <anchor x="572" y="960" name="top"/>
  <outline>
    <contour>
      <point x="552" y="-450" type="qcurve"/>
      <point x="444" y="-450"/>
      <point x="273" y="-410"/>
      <point x="153" y="-336"/>
      <point x="90" y="-232"/>
      <point x="90" y="-168" type="qcurve"/>
      <point x="90" y="-114"/>
      <point x="146" y="-24"/>
      <point x="259" y="41"/>
      <point x="344" y="58" type="qcurve"/>
      <point x="284" y="85"/>
      <point x="224" y="154"/>
      <point x="224" y="200" type="qcurve"/>
      <point x="224" y="238"/>
      <point x="267" y="302"/>
      <point x="348" y="354"/>
      <point x="462" y="390"/>
      <point x="532" y="398" type="qcurve"/>
      <point x="570" y="330" type="line"/>
      <point x="503" y="330"/>
      <point x="399" y="304"/>
      <point x="340" y="257"/>
      <point x="340" y="224" type="qcurve"/>
      <point x="340" y="179"/>
      <point x="439" y="146"/>
      <point x="512" y="140" type="qcurve"/>
      <point x="676" y="128" type="line"/>
      <point x="800" y="119"/>
      <point x="969" y="58"/>
      <point x="1056" y="-50"/>
      <point x="1056" y="-130" type="qcurve"/>
      <point x="1056" y="-197"/>
      <point x="983" y="-314"/>
      <point x="849" y="-401"/>
      <point x="664" y="-450"/>
    </contour>
    <contour>
      <point x="550" y="-352" type="qcurve"/>
      <point x="729" y="-352"/>
      <point x="932" y="-236"/>
      <point x="932" y="-146" type="qcurve"/>
      <point x="932" y="-77"/>
      <point x="786" y="2"/>
      <point x="642" y="12" type="qcurve"/>
      <point x="472" y="24" type="line"/>
      <point x="391" y="19"/>
      <point x="275" y="-28"/>
      <point x="214" y="-106"/>
      <point x="214" y="-156" type="qcurve"/>
      <point x="214" y="-214"/>
      <point x="295" y="-302"/>
      <point x="445" y="-352"/>
    </contour>
    <contour>
      <point x="550" y="310" type="qcurve"/>
      <point x="437" y="310"/>
      <point x="251" y="401"/>
      <point x="140" y="555"/>
      <point x="140" y="650" type="qcurve"/>
      <point x="140" y="745"/>
      <point x="251" y="899"/>
      <point x="437" y="990"/>
      <point x="550" y="990" type="qcurve"/>
      <point x="663" y="990"/>
      <point x="849" y="899"/>
      <point x="960" y="745"/>
      <point x="960" y="650" type="qcurve"/>
      <point x="960" y="555"/>
      <point x="849" y="401"/>
      <point x="663" y="310"/>
    </contour>
    <contour>
      <point x="550" y="418" type="qcurve"/>
      <point x="635" y="418"/>
      <point x="763" y="476"/>
      <point x="834" y="581"/>
      <point x="834" y="650" type="qcurve"/>
      <point x="834" y="754"/>
      <point x="678" y="882"/>
      <point x="550" y="882" type="qcurve"/>
      <point x="465" y="882"/>
      <point x="337" y="823"/>
      <point x="266" y="719"/>
      <point x="266" y="650" type="qcurve"/>
      <point x="266" y="547"/>
      <point x="423" y="418"/>
    </contour>
    <contour>
      <point x="706" y="856" type="line"/>
      <point x="666" y="950" type="line"/>
      <point x="1122" y="960" type="line"/>
      <point x="1120" y="856" type="line"/>
    </contour>
  </outline>
</glyph>
<glyph name="l" format="2">
  <advance width="452"/>
  <unicode hex="006C"/>
  <anchor x="226" y="1440" name="top"/>
  <anchor x="282" y="1440" name="Anchor_2"/>
  <anchor x="226" y="0" name="bottom"/>
  <outline>
    <contour>
      <point x="170" y="0" type="line"/>
      <point x="170" y="1440" type="line"/>
      <point x="282" y="1440" type="line"/>
      <point x="282" y="0" type="line"/>
    </contour>
  </outline>
</glyph>
<glyph name="m" format="2">
  <advance width="1818"/>
  <unicode hex="006D"/>
  <outline>
    <contour>
      <point x="170" y="0" type="line"/>
      <point x="170" y="960" type="line"/>
      <point x="282" y="960" type="line"/>
      <point x="282" y="814" type="line"/>
      <point x="326" y="878"/>
      <point x="433" y="955"/>
      <point x="551" y="990"/>
      <point x="612" y="990" type="qcurve"/>
      <point x="743" y="990"/>
      <point x="902" y="878"/>
      <point x="938" y="798" type="qcurve"/>
      <point x="1025" y="917"/>
      <point x="1215" y="990"/>
      <point x="1300" y="990" type="qcurve"/>
      <point x="1427" y="990"/>
      <point x="1585" y="886"/>
      <point x="1658" y="727"/>
      <point x="1658" y="646" type="qcurve"/>
      <point x="1658" y="0" type="line"/>
      <point x="1546" y="0" type="line"/>
      <point x="1546" y="612" type="line"/>
      <point x="1546" y="732"/>
      <point x="1412" y="882"/>
      <point x="1280" y="882" type="qcurve"/>
      <point x="1194" y="882"/>
      <point x="1053" y="804"/>
      <point x="970" y="663"/>
      <point x="970" y="570" type="qcurve"/>
      <point x="970" y="0" type="line"/>
      <point x="858" y="0" type="line"/>
      <point x="858" y="612" type="line"/>
      <point x="858" y="732"/>
      <point x="724" y="882"/>
      <point x="592" y="882" type="qcurve"/>
      <point x="506" y="882"/>
      <point x="365" y="804"/>
      <point x="282" y="663"/>
      <point x="282" y="570" type="qcurve"/>
      <point x="282" y="0" type="line"/>
    </contour>
  </outline>
</glyph>
<glyph name="q" format="2">
  <advance width="1254"/>
  <unicode hex="0071"/>
  <outline>
    <contour>
      <point x="972" y="-420" type="line"/>
      <point x="972" y="218" type="line"/>
      <point x="990" y="194" type="line"/>
      <point x="927" y="95"/>
      <point x="719" y="-30"/>
      <point x="566" y="-30" type="qcurve"/>
      <point x="421" y="-30"/>
      <point x="202" y="109"/>
      <point x="80" y="341"/>
      <point x="80" y="480" type="qcurve"/>
      <point x="80" y="584"/>
      <point x="150" y="769"/>
      <point x="279" y="910"/>
      <point x="457" y="990"/>
      <point x="566" y="990" type="qcurve"/>
      <point x="675" y="990"/>
      <point x="833" y="933"/>
      <point x="947" y="835"/>
      <point x="990" y="774" type="qcurve"/>
      <point x="972" y="748" type="line"/>
      <point x="972" y="960" type="line"/>
      <point x="1084" y="960" type="line"/>
      <point x="1084" y="-420" type="line"/>
    </contour>
    <contour>
      <point x="586" y="78" type="qcurve"/>
      <point x="699" y="78"/>
      <point x="873" y="177"/>
      <point x="972" y="357"/>
      <point x="972" y="480" type="qcurve"/>
      <point x="972" y="603"/>
      <point x="873" y="784"/>
      <point x="699" y="882"/>
      <point x="586" y="882" type="qcurve"/>
      <point x="473" y="882"/>
      <point x="299" y="784"/>
      <point x="200" y="603"/>
      <point x="200" y="480" type="qcurve"/>
      <point x="200" y="357"/>
      <point x="299" y="177"/>
      <point x="473" y="78"/>
    </contour>
  </outline>
</glyph>
<glyph name="y" format="2">
  <advance width="964"/>
  <unicode hex="0079"/>
  <anchor x="482" y="960" name="top"/>
  <anchor x="732" y="0" name="bottom"/>
  <outline>
    <contour>
      <point x="188" y="-450" type="qcurve"/>
      <point x="151" y="-450"/>
      <point x="76" y="-430"/>
      <point x="32" y="-402" type="qcurve"/>
      <point x="62" y="-300" type="line"/>
      <point x="92" y="-322"/>
      <point x="161" y="-342"/>
      <point x="186" y="-342" type="qcurve"/>
      <point x="270" y="-342"/>
      <point x="354" y="-257"/>
      <point x="384" y="-172" type="qcurve"/>
      <point x="434" y="-28" type="line"/>
      <point x="50" y="960" type="line"/>
      <point x="176" y="960" type="line"/>
      <point x="498" y="124" type="line"/>
      <point x="812" y="960" type="line"/>
      <point x="932" y="960" type="line"/>
      <point x="500" y="-184" type="line"/>
      <point x="459" y="-292"/>
      <point x="368" y="-407"/>
      <point x="258" y="-450"/>
    </contour>
  </outline>
</glyph>
<glyph name="braceright" format="2">
  <advance width="666"/>
  <unicode hex="007D"/>
  <outline>
    <contour>
      <point x="134" y="-224" type="qcurve"/>
      <point x="134" y="-128" type="line"/>
      <point x="244" y="-138"/>
      <point x="319" y="-75"/>
      <point x="310" y="6" type="qcurve"/>
      <point x="256" y="462" type="line"/>
      <point x="243" y="570"/>
      <point x="298" y="674"/>
      <point x="380" y="690" type="qcurve"/>
      <point x="380" y="692" type="line"/>
      <point x="299" y="707"/>
      <point x="243" y="812"/>
      <point x="256" y="920" type="qcurve"/>
      <point x="310" y="1374" type="line"/>
      <point x="319" y="1454"/>
      <point x="242" y="1519"/>
      <point x="134" y="1508" type="qcurve"/>
      <point x="134" y="1604" type="line"/>
      <point x="286" y="1628"/>
      <point x="437" y="1503"/>
      <point x="422" y="1380" type="qcurve"/>
      <point x="362" y="904" type="line"/>
      <point x="353" y="836"/>
      <point x="371" y="765"/>
      <point x="450" y="740"/>
      <point x="532" y="740" type="qcurve"/>
      <point x="532" y="644" type="line"/>
      <point x="450" y="644"/>
      <point x="371" y="619"/>
      <point x="353" y="547"/>
      <point x="362" y="478" type="qcurve"/>
      <point x="424" y="-4" type="line"/>
      <point x="439" y="-125"/>
      <point x="289" y="-248"/>
    </contour>
  </outline>
</glyph>
<glyph name="exclamdown" format="2">
  <advance width="640"/>
  <unicode hex="00A1"/>
  <outline>
    <contour>
      <point x="240" y="-430" type="line"/>
      <point x="260" y="530" type="line"/>
      <point x="360" y="530" type="line"/>
      <point x="380" y="-430" type="line"/>
    </contour>
    <contour>
      <point x="310" y="792" type="qcurve"/>
      <point x="264" y="792"/>
      <point x="200" y="851"/>
      <point x="200" y="896" type="qcurve"/>
      <point x="200" y="926"/>
      <point x="229" y="973"/>
      <point x="279" y="1000"/>
      <point x="310" y="1000" type="qcurve"/>
      <point x="357" y="1000"/>
      <point x="420" y="941"/>
      <point x="420" y="896" type="qcurve"/>
      <point x="420" y="866"/>
      <point x="391" y="819"/>
      <point x="341" y="792"/>
    </contour>
  </outline>
</glyph>
<glyph name="cent" format="2">
  <advance width="1296"/>
  <unicode hex="00A2"/>
  <outline>
    <contour>
      <point x="648" y="-160" type="line"/>
      <point x="648" y="4" type="line"/>
      <point x="526" y="18"/>
      <point x="334" y="144"/>
      <point x="224" y="348"/>
      <point x="224" y="480" type="qcurve"/>
      <point x="224" y="611"/>
      <point x="335" y="812"/>
      <point x="527" y="937"/>
      <point x="648" y="954" type="qcurve"/>
      <point x="648" y="1120" type="line"/>
      <point x="748" y="1120" type="line"/>
      <point x="748" y="960" type="line"/>
      <point x="826" y="957"/>
      <point x="958" y="912"/>
      <point x="1022" y="864" type="qcurve"/>
      <point x="950" y="792" type="line"/>
      <point x="910" y="822"/>
      <point x="808" y="859"/>
      <point x="748" y="862" type="qcurve"/>
      <point x="748" y="100" type="line"/>
      <point x="816" y="106"/>
      <point x="931" y="158"/>
      <point x="964" y="192" type="qcurve"/>
      <point x="1042" y="124" type="line"/>
      <point x="976" y="70"/>
      <point x="832" y="8"/>
      <point x="748" y="2" type="qcurve"/>
      <point x="748" y="-160" type="line"/>
    </contour>
    <contour>
      <point x="648" y="102" type="qcurve"/>
      <point x="648" y="860" type="line"/>
      <point x="548" y="847"/>
      <point x="405" y="752"/>
      <point x="328" y="592"/>
      <point x="328" y="482" type="qcurve"/>
      <point x="328" y="316"/>
      <point x="498" y="122"/>
    </contour>
  </outline>
</glyph>
<glyph name="currency" format="2">
  <advance width="1296"/>
  <unicode hex="00A4"/>
  <outline>
    <contour>
      <point x="258" y="156" type="line"/>
      <point x="182" y="230" type="line"/>
      <point x="334" y="384" type="line"/>
      <point x="292" y="437"/>
      <point x="254" y="557"/>
      <point x="254" y="620" type="qcurve"/>
      <point x="254" y="685"/>
      <point x="294" y="808"/>
      <point x="334" y="860" type="qcurve"/>
      <point x="182" y="1010" type="line"/>
      <point x="258" y="1086" type="line"/>
      <point x="410" y="934" type="line"/>
      <point x="464" y="978"/>
      <point x="585" y="1016"/>
      <point x="648" y="1016" type="qcurve"/>
      <point x="713" y="1016"/>
      <point x="835" y="976"/>
      <point x="886" y="934" type="qcurve"/>
      <point x="1038" y="1086" type="line"/>
      <point x="1114" y="1010" type="line"/>
      <point x="962" y="860" type="line"/>
      <point x="1003" y="808"/>
      <point x="1044" y="686"/>
      <point x="1044" y="620" type="qcurve"/>
      <point x="1044" y="556"/>
      <point x="1003" y="434"/>
      <point x="962" y="384" type="qcurve"/>
      <point x="1114" y="230" type="line"/>
      <point x="1038" y="156" type="line"/>
      <point x="886" y="308" type="line"/>
      <point x="832" y="265"/>
      <point x="711" y="226"/>
      <point x="648" y="226" type="qcurve"/>
      <point x="582" y="226"/>
      <point x="463" y="266"/>
      <point x="410" y="308" type="qcurve"/>
    </contour>
    <contour>
      <point x="648" y="326" type="qcurve"/>
      <point x="734" y="326"/>
      <point x="868" y="403"/>
      <point x="944" y="536"/>
      <point x="944" y="620" type="qcurve"/>
      <point x="944" y="706"/>
      <point x="867" y="840"/>
      <point x="733" y="916"/>
      <point x="648" y="916" type="qcurve"/>
      <point x="564" y="916"/>
      <point x="430" y="840"/>
      <point x="352" y="706"/>
      <point x="352" y="620" type="qcurve"/>
      <point x="352" y="536"/>
      <point x="429" y="403"/>
      <point x="563" y="326"/>
    </contour>
  </outline>
</glyph>
<glyph name="ordfeminine" format="2">
  <advance width="770"/>
  <unicode hex="00AA"/>
  <anchor x="368" y="1354" name="top"/>
  <anchor x="368" y="722" name="bottom"/>
  <outline>
    <contour>
      <point x="318" y="702" type="qcurve"/>
      <point x="216" y="702"/>
      <point x="92" y="811"/>
      <point x="92" y="902" type="qcurve"/>
      <point x="92" y="968"/>
      <point x="187" y="1068"/>
      <point x="400" y="1112"/>
      <point x="576" y="1094" type="qcurve"/>
      <point x="580" y="1014" type="line"/>
      <point x="440" y="1032"/>
      <point x="268" y="1011"/>
      <point x="190" y="948"/>
      <point x="190" y="904" type="qcurve"/>
      <point x="190" y="850"/>
      <point x="271" y="790"/>
      <point x="340" y="790" type="qcurve"/>
      <point x="427" y="790"/>
      <point x="544" y="884"/>
      <point x="544" y="954" type="qcurve"/>
      <point x="544" y="1138" type="line"/>
      <point x="544" y="1209"/>
      <point x="450" y="1290"/>
      <point x="360" y="1290" type="qcurve"/>
      <point x="305" y="1290"/>
      <point x="206" y="1258"/>
      <point x="162" y="1226" type="qcurve"/>
      <point x="112" y="1350" type="line"/>
      <point x="102" y="1286" type="line"/>
      <point x="165" y="1339"/>
      <point x="304" y="1380"/>
      <point x="370" y="1380" type="qcurve"/>
      <point x="505" y="1380"/>
      <point x="646" y="1257"/>
      <point x="646" y="1138" type="qcurve"/>
      <point x="646" y="722" type="line"/>
      <point x="548" y="722" type="line"/>
      <point x="548" y="802" type="line"/>
      <point x="512" y="751"/>
      <point x="389" y="702"/>
    </contour>
  </outline>
</glyph>
<glyph name="registered" format="2">
  <advance width="1228"/>
  <unicode hex="00AE"/>
  <anchor x="616" y="1198" name="top"/>
  <anchor x="638" y="778" name="bottom"/>
  <outline>
    <contour>
      <point x="614" y="478" type="qcurve"/>
      <point x="464" y="478"/>
      <point x="227" y="613"/>
      <point x="90" y="844"/>
      <point x="90" y="988" type="qcurve"/>
      <point x="90" y="1134"/>
      <point x="228" y="1366"/>
      <point x="465" y="1500"/>
      <point x="614" y="1500" type="qcurve"/>
      <point x="762" y="1500"/>
      <point x="999" y="1363"/>
      <point x="1138" y="1131"/>
      <point x="1138" y="988" type="qcurve"/>
      <point x="1138" y="844"/>
      <point x="1000" y="613"/>
      <point x="763" y="478"/>
    </contour>
    <contour>
      <point x="614" y="544" type="qcurve"/>
      <point x="733" y="544"/>
      <point x="938" y="655"/>
      <point x="1064" y="855"/>
      <point x="1064" y="988" type="qcurve"/>
      <point x="1064" y="1122"/>
      <point x="938" y="1323"/>
      <point x="733" y="1434"/>
      <point x="614" y="1434" type="qcurve"/>
      <point x="495" y="1434"/>
      <point x="290" y="1323"/>
      <point x="164" y="1122"/>
      <point x="164" y="988" type="qcurve"/>
      <point x="164" y="855"/>
      <point x="290" y="655"/>
      <point x="495" y="544"/>
    </contour>
    <contour>
      <point x="432" y="714" type="line"/>
      <point x="432" y="1262" type="line"/>
      <point x="646" y="1262" type="line"/>
      <point x="733" y="1262"/>
      <point x="838" y="1175"/>
      <point x="838" y="1100" type="qcurve"/>
      <point x="838" y="1040"/>
      <point x="754" y="961"/>
      <point x="686" y="950" type="qcurve"/>
      <point x="864" y="714" type="line"/>
      <point x="766" y="714" type="line"/>
      <point x="598" y="938" type="line"/>
      <point x="512" y="938" type="line"/>
      <point x="512" y="714" type="line"/>
    </contour>
    <contour>
      <point x="512" y="1006" type="line"/>
      <point x="630" y="1006" type="line"/>
      <point x="689" y="1006"/>
      <point x="754" y="1055"/>
      <point x="754" y="1098" type="qcurve"/>
      <point x="754" y="1142"/>
      <point x="697" y="1194"/>
      <point x="638" y="1194" type="qcurve"/>
      <point x="512" y="1194" type="line"/>
    </contour>
  </outline>
</glyph>
<glyph name="degree" format="2">
  <advance width="926"/>
  <unicode hex="00B0"/>
  <outline>
    <contour>
      <point x="464" y="710" type="qcurve"/>
      <point x="364" y="710"/>
      <point x="199" y="806"/>
      <point x="100" y="968"/>
      <point x="100" y="1066" type="qcurve"/>
      <point x="100" y="1163"/>
      <point x="199" y="1324"/>
      <point x="364" y="1420"/>
      <point x="464" y="1420" type="qcurve"/>
      <point x="564" y="1420"/>
      <point x="728" y="1324"/>
      <point x="826" y="1163"/>
      <point x="826" y="1066" type="qcurve"/>
      <point x="826" y="968"/>
      <point x="728" y="806"/>
      <point x="564" y="710"/>
    </contour>
    <contour>
      <point x="464" y="806" type="qcurve"/>
      <point x="543" y="806"/>
      <point x="661" y="871"/>
      <point x="726" y="988"/>
      <point x="726" y="1066" type="qcurve"/>
      <point x="726" y="1183"/>
      <point x="583" y="1324"/>
      <point x="464" y="1324" type="qcurve"/>
      <point x="386" y="1324"/>
      <point x="267" y="1258"/>
      <point x="200" y="1142"/>
      <point x="200" y="1066" type="qcurve"/>
      <point x="200" y="952"/>
      <point x="347" y="806"/>
    </contour>
  </outline>
</glyph>
<glyph name="twosuperior" format="2">
  <advance width="824"/>
  <unicode hex="00B2"/>
  <outline>
    <contour>
      <point x="108" y="722" type="line"/>
      <point x="108" y="804" type="line"/>
      <point x="314" y="988" type="line"/>
      <point x="413" y="1077"/>
      <point x="540" y="1211"/>
      <point x="600" y="1323"/>
      <point x="600" y="1380" type="qcurve"/>
      <point x="600" y="1463"/>
      <point x="479" y="1558"/>
      <point x="374" y="1558" type="qcurve"/>
      <point x="313" y="1558"/>
      <point x="198" y="1520"/>
      <point x="160" y="1482" type="qcurve"/>
      <point x="118" y="1559" type="line"/>
      <point x="171" y="1605"/>
      <point x="309" y="1652"/>
      <point x="388" y="1652" type="qcurve"/>
      <point x="526" y="1652"/>
      <point x="700" y="1508"/>
      <point x="700" y="1386" type="qcurve"/>
      <point x="700" y="1321"/>
      <point x="643" y="1197"/>
      <point x="519" y="1058"/>
      <point x="420" y="970" type="qcurve"/>
      <point x="244" y="814" type="line"/>
      <point x="722" y="814" type="line"/>
      <point x="722" y="722" type="line"/>
    </contour>
  </outline>
</glyph>
<glyph name="threesuperior" format="2">
  <advance width="816"/>
  <unicode hex="00B3"/>
  <outline>
    <contour>
      <point x="372" y="702" type="qcurve"/>
      <point x="284" y="702"/>
      <point x="127" y="753"/>
      <point x="83" y="790" type="qcurve"/>
      <point x="122" y="878" type="line"/>
      <point x="169" y="841"/>
      <point x="302" y="798"/>
      <point x="366" y="798" type="qcurve"/>
      <point x="474" y="798"/>
      <point x="602" y="904"/>
      <point x="602" y="992" type="qcurve"/>
      <point x="602" y="1081"/>
      <point x="467" y="1180"/>
      <point x="354" y="1180" type="qcurve"/>
      <point x="329" y="1180"/>
      <point x="271" y="1174"/>
      <point x="242" y="1168" type="qcurve"/>
      <point x="208" y="1240" type="line"/>
      <point x="532" y="1540" type="line"/>
      <point x="88" y="1540" type="line"/>
      <point x="88" y="1632" type="line"/>
      <point x="666" y="1632" type="line"/>
      <point x="666" y="1548" type="line"/>
      <point x="352" y="1254" type="line"/>
      <point x="447" y="1259"/>
      <point x="609" y="1203"/>
      <point x="708" y="1081"/>
      <point x="708" y="988" type="qcurve"/>
      <point x="708" y="902"/>
      <point x="622" y="773"/>
      <point x="470" y="702"/>
    </contour>
  </outline>
</glyph>
<glyph name="onehalf" format="2">
  <advance width="1834"/>
  <unicode hex="00BD"/>
  <outline>
    <contour>
      <point x="338" y="490" type="line"/>
      <point x="338" y="1294" type="line"/>
      <point x="76" y="1200" type="line"/>
      <point x="48" y="1280" type="line"/>
      <point x="428" y="1420" type="line"/>
      <point x="436" y="1420" type="line"/>
      <point x="436" y="490" type="line"/>
    </contour>
    <contour>
      <point x="1118" y="0" type="line"/>
      <point x="1118" y="82" type="line"/>
      <point x="1324" y="266" type="line"/>
      <point x="1423" y="355"/>
      <point x="1550" y="489"/>
      <point x="1610" y="601"/>
      <point x="1610" y="658" type="qcurve"/>
      <point x="1610" y="741"/>
      <point x="1489" y="836"/>
      <point x="1384" y="836" type="qcurve"/>
      <point x="1323" y="836"/>
      <point x="1208" y="798"/>
      <point x="1170" y="760" type="qcurve"/>
      <point x="1128" y="837" type="line"/>
      <point x="1181" y="883"/>
      <point x="1319" y="930"/>
      <point x="1398" y="930" type="qcurve"/>
      <point x="1536" y="930"/>
      <point x="1710" y="786"/>
      <point x="1710" y="664" type="qcurve"/>
      <point x="1710" y="599"/>
      <point x="1653" y="475"/>
      <point x="1529" y="336"/>
      <point x="1430" y="248" type="qcurve"/>
      <point x="1254" y="92" type="line"/>
      <point x="1732" y="92" type="line"/>
      <point x="1732" y="0" type="line"/>
    </contour>
    <contour>
      <point x="456" y="-30" type="line"/>
      <point x="380" y="16" type="line"/>
      <point x="1170" y="1430" type="line"/>
      <point x="1246" y="1390" type="line"/>
    </contour>
  </outline>
</glyph>
<glyph name="questiondown" format="2">
  <advance width="932"/>
  <unicode hex="00BF"/>
  <outline>
    <contour>
      <point x="522" y="-460" type="qcurve"/>
      <point x="398" y="-460"/>
      <point x="208" y="-381"/>
      <point x="100" y="-229"/>
      <point x="100" y="-120" type="qcurve"/>
      <point x="100" y="-62"/>
      <point x="140" y="50"/>
      <point x="245" y="164"/>
      <point x="342" y="226" type="qcurve"/>
      <point x="413" y="271"/>
      <point x="484" y="358"/>
      <point x="494" y="486"/>
      <point x="474" y="592" type="qcurve"/>
      <point x="594" y="592" type="line"/>
      <point x="617" y="472"/>
      <point x="606" y="321"/>
      <point x="517" y="210"/>
      <point x="422" y="150" type="qcurve"/>
      <point x="299" y="72"/>
      <point x="220" y="-44"/>
      <point x="220" y="-112" type="qcurve"/>
      <point x="220" y="-230"/>
      <point x="383" y="-348"/>
      <point x="524" y="-348" type="qcurve"/>
      <point x="616" y="-348"/>
      <point x="760" y="-297"/>
      <point x="808" y="-254" type="qcurve"/>
      <point x="856" y="-352" type="line"/>
      <point x="812" y="-388"/>
      <point x="709" y="-436"/>
      <point x="590" y="-460"/>
    </contour>
    <contour>
      <point x="520" y="792" type="qcurve"/>
      <point x="474" y="792"/>
      <point x="410" y="851"/>
      <point x="410" y="896" type="qcurve"/>
      <point x="410" y="926"/>
      <point x="439" y="973"/>
      <point x="489" y="1000"/>
      <point x="520" y="1000" type="qcurve"/>
      <point x="567" y="1000"/>
      <point x="630" y="941"/>
      <point x="630" y="896" type="qcurve"/>
      <point x="630" y="866"/>
      <point x="601" y="819"/>
      <point x="551" y="792"/>
    </contour>
  </outline>
</glyph>
<glyph name="germandbls" format="2">
  <advance width="1162"/>
  <unicode hex="00DF"/>
  <outline>
    <contour>
      <point x="710" y="-30" type="qcurve"/>
      <point x="671" y="-30"/>
      <point x="546" y="-9"/>
      <point x="469" y="30" type="qcurve"/>
      <point x="517" y="131" type="line"/>
      <point x="577" y="98"/>
      <point x="667" y="74"/>
      <point x="716" y="74" type="qcurve"/>
      <point x="829" y="74"/>
      <point x="960" y="172"/>
      <point x="960" y="260" type="qcurve"/>
      <point x="960" y="343"/>
      <point x="855" y="438"/>
      <point x="786" y="480" type="qcurve"/>
      <point x="741" y="508"/>
      <point x="641" y="580"/>
      <point x="570" y="678"/>
      <point x="570" y="744" type="qcurve"/>
      <point x="570" y="796"/>
      <point x="616" y="877"/>
      <point x="680" y="943"/>
      <point x="708" y="972" type="qcurve"/>
      <point x="741" y="1006"/>
      <point x="802" y="1066"/>
      <point x="840" y="1132"/>
      <point x="840" y="1174" type="qcurve"/>
      <point x="840" y="1263"/>
      <point x="690" y="1362"/>
      <point x="574" y="1362" type="qcurve"/>
      <point x="430" y="1362"/>
      <point x="282" y="1203"/>
      <point x="282" y="1060" type="qcurve"/>
      <point x="282" y="0" type="line"/>
      <point x="170" y="0" type="line"/>
      <point x="170" y="1092" type="line"/>
      <point x="170" y="1201"/>
      <point x="268" y="1372"/>
      <point x="448" y="1470"/>
      <point x="570" y="1470" type="qcurve"/>
      <point x="685" y="1470"/>
      <point x="862" y="1397"/>
      <point x="962" y="1265"/>
      <point x="962" y="1176" type="qcurve"/>
      <point x="962" y="1115"/>
      <point x="912" y="1027"/>
      <point x="838" y="954"/>
      <point x="802" y="916" type="qcurve"/>
      <point x="765" y="877"/>
      <point x="694" y="799"/>
      <point x="694" y="748" type="qcurve"/>
      <point x="694" y="685"/>
      <point x="800" y="605"/>
      <point x="858" y="570" type="qcurve"/>
      <point x="915" y="537"/>
      <point x="1018" y="460"/>
      <point x="1082" y="351"/>
      <point x="1082" y="269" type="qcurve"/>
      <point x="1082" y="178"/>
      <point x="989" y="43"/>
      <point x="821" y="-30"/>
    </contour>
  </outline>
</glyph>
<glyph name="oslash" format="2">
  <advance width="1172"/>
  <unicode hex="00F8"/>
  <anchor x="586" y="960" name="top"/>
  <outline>
    <contour>
      <point x="214" y="-50" type="line"/>
      <point x="142" y="10" type="line"/>
      <point x="228" y="116" type="line"/>
      <point x="159" y="187"/>
      <point x="80" y="374"/>
      <point x="80" y="480" type="qcurve"/>
      <point x="80" y="584"/>
      <point x="156" y="769"/>
      <point x="293" y="910"/>
      <point x="477" y="990"/>
      <point x="586" y="990" type="qcurve"/>
      <point x="667" y="990"/>
      <point x="812" y="945"/>
      <point x="872" y="904" type="qcurve"/>
      <point x="958" y="1010" type="line"/>
      <point x="1030" y="950" type="line"/>
      <point x="944" y="844" type="line"/>
      <point x="1013" y="774"/>
      <point x="1092" y="587"/>
      <point x="1092" y="480" type="qcurve"/>
      <point x="1092" y="376"/>
      <point x="1016" y="191"/>
      <point x="879" y="50"/>
      <point x="695" y="-30"/>
      <point x="586" y="-30" type="qcurve"/>
      <point x="505" y="-30"/>
      <point x="360" y="16"/>
      <point x="300" y="56" type="qcurve"/>
    </contour>
    <contour>
      <point x="296" y="200" type="qcurve"/>
      <point x="804" y="822" type="line"/>
      <point x="759" y="851"/>
      <point x="649" y="882"/>
      <point x="586" y="882" type="qcurve"/>
      <point x="473" y="882"/>
      <point x="299" y="784"/>
      <point x="200" y="603"/>
      <point x="200" y="480" type="qcurve"/>
      <point x="200" y="393"/>
      <point x="251" y="251"/>
    </contour>
    <contour>
      <point x="586" y="78" type="qcurve"/>
      <point x="699" y="78"/>
      <point x="873" y="177"/>
      <point x="972" y="357"/>
      <point x="972" y="480" type="qcurve"/>
      <point x="972" y="567"/>
      <point x="921" y="709"/>
      <point x="876" y="760" type="qcurve"/>
      <point x="368" y="138" type="line"/>
      <point x="413" y="110"/>
      <point x="523" y="78"/>
    </contour>
  </outline>
</glyph>
<glyph name="thorn" format="2">
  <advance width="1254"/>
  <unicode hex="00FE"/>
  <outline>
    <contour>
      <point x="170" y="-420" type="line"/>
      <point x="170" y="1440" type="line"/>
      <point x="282" y="1440" type="line"/>
      <point x="282" y="784" type="line"/>
      <point x="345" y="873"/>
      <point x="546" y="990"/>
      <point x="688" y="990" type="qcurve"/>
      <point x="833" y="990"/>
      <point x="1052" y="851"/>
      <point x="1174" y="619"/>
      <point x="1174" y="480" type="qcurve"/>
      <point x="1174" y="376"/>
      <point x="1104" y="191"/>
      <point x="975" y="50"/>
      <point x="797" y="-30"/>
      <point x="688" y="-30" type="qcurve"/>
      <point x="546" y="-30"/>
      <point x="345" y="80"/>
      <point x="282" y="168" type="qcurve"/>
      <point x="282" y="-420" type="line"/>
    </contour>
    <contour>
      <point x="668" y="78" type="qcurve"/>
      <point x="781" y="78"/>
      <point x="955" y="177"/>
      <point x="1054" y="357"/>
      <point x="1054" y="480" type="qcurve"/>
      <point x="1054" y="603"/>
      <point x="955" y="784"/>
      <point x="781" y="882"/>
      <point x="668" y="882" type="qcurve"/>
      <point x="555" y="882"/>
      <point x="381" y="784"/>
      <point x="282" y="603"/>
      <point x="282" y="480" type="qcurve"/>
      <point x="282" y="357"/>
      <point x="381" y="177"/>
      <point x="555" y="78"/>
    </contour>
  </outline>
</glyph>
<glyph name="eogonek" format="2">
  <advance width="1101"/>
  <unicode hex="0119"/>
  <anchor x="572" y="960" name="top"/>
  <anchor x="556" y="0" name="bottom"/>
  <outline>
    <contour>
      <point x="720" y="-450" type="qcurve"/>
      <point x="621" y="-450"/>
      <point x="519" y="-335"/>
      <point x="520" y="-255" type="qcurve"/>
      <point x="522" y="-170"/>
      <point x="612" y="-41"/>
      <point x="756" y="47"/>
      <point x="840" y="68" type="qcurve"/>
      <point x="880" y="0" type="line"/>
      <point x="810" y="-19"/>
      <point x="703" y="-79"/>
      <point x="642" y="-167"/>
      <point x="640" y="-229" type="qcurve"/>
      <point x="639" y="-275"/>
      <point x="681" y="-340"/>
      <point x="736" y="-340" type="qcurve"/>
      <point x="765" y="-340"/>
      <point x="818" y="-325"/>
      <point x="840" y="-313" type="qcurve"/>
      <point x="882" y="-409" type="line"/>
      <point x="845" y="-428"/>
      <point x="762" y="-450"/>
    </contour>
    <contour>
      <point x="590" y="-30" type="qcurve"/>
      <point x="440" y="-30"/>
      <point x="210" y="97"/>
      <point x="80" y="325"/>
      <point x="80" y="476" type="qcurve"/>
      <point x="80" y="586"/>
      <point x="154" y="774"/>
      <point x="288" y="913"/>
      <point x="467" y="990"/>
      <point x="572" y="990" type="qcurve"/>
      <point x="683" y="990"/>
      <point x="858" y="911"/>
      <point x="975" y="769"/>
      <point x="1029" y="579"/>
      <point x="1018" y="468" type="qcurve"/>
      <point x="204" y="468" type="line"/>
      <point x="198" y="351"/>
      <point x="292" y="176"/>
      <point x="476" y="78"/>
      <point x="604" y="78" type="qcurve"/>
      <point x="681" y="78"/>
      <point x="834" y="133"/>
      <point x="888" y="184" type="qcurve"/>
      <point x="953" y="90" type="line"/>
      <point x="904" y="49"/>
      <point x="782" y="-5"/>
      <point x="653" y="-30"/>
    </contour>
    <contour>
      <point x="208" y="572" type="qcurve"/>
      <point x="898" y="572" type="line"/>
      <point x="892" y="719"/>
      <point x="728" y="882"/>
      <point x="572" y="882" type="qcurve"/>
      <point x="421" y="882"/>
      <point x="225" y="719"/>
    </contour>
  </outline>
</glyph>
<glyph name="Uogonek" format="2">
  <advance width="1444"/>
  <unicode hex="0172"/>
  <anchor x="722" y="1400" name="top"/>
  <outline>
    <contour>
      <point x="878" y="-450" type="qcurve"/>
      <point x="779" y="-450"/>
      <point x="677" y="-335"/>
      <point x="678" y="-255" type="qcurve"/>
      <point x="680" y="-187"/>
      <point x="736" y="-74"/>
      <point x="782" y="-28" type="qcurve"/>
      <point x="599" y="-37"/>
      <point x="334" y="88"/>
      <point x="190" y="338"/>
      <point x="190" y="516" type="qcurve"/>
      <point x="190" y="1400" type="line"/>
      <point x="306" y="1400" type="line"/>
      <point x="306" y="532" type="line"/>
      <point x="306" y="306"/>
      <point x="533" y="82"/>
      <point x="722" y="82" type="qcurve"/>
      <point x="911" y="82"/>
      <point x="1138" y="306"/>
      <point x="1138" y="532" type="qcurve"/>
      <point x="1138" y="1400" type="line"/>
      <point x="1254" y="1400" type="line"/>
      <point x="1254" y="516" type="line"/>
      <point x="1254" y="360"/>
      <point x="1125" y="101"/>
      <point x="996" y="33" type="qcurve"/>
      <point x="910" y="-13"/>
      <point x="801" y="-139"/>
      <point x="798" y="-229" type="qcurve"/>
      <point x="797" y="-275"/>
      <point x="839" y="-340"/>
      <point x="894" y="-340" type="qcurve"/>
      <point x="923" y="-340"/>
      <point x="976" y="-325"/>
      <point x="998" y="-313" type="qcurve"/>
      <point x="1040" y="-409" type="line"/>
      <point x="1003" y="-428"/>
      <point x="920" y="-450"/>
    </contour>
  </outline>
</glyph>
<glyph name="oogonek" format="2">
  <advance width="1172"/>
  <unicode hex="01EB"/>
  <anchor x="586" y="960" name="top"/>
  <outline>
    <contour>
      <point x="642" y="-450" type="qcurve"/>
      <point x="543" y="-450"/>
      <point x="441" y="-335"/>
      <point x="442" y="-255" type="qcurve"/>
      <point x="444" y="-184"/>
      <point x="508" y="-72"/>
      <point x="560" y="-29" type="qcurve"/>
      <point x="422" y="-22"/>
      <point x="205" y="118"/>
      <point x="80" y="345"/>
      <point x="80" y="480" type="qcurve"/>
      <point x="80" y="584"/>
      <point x="156" y="769"/>
      <point x="293" y="910"/>
      <point x="477" y="990"/>
      <point x="586" y="990" type="qcurve"/>
      <point x="731" y="990"/>
      <point x="960" y="851"/>
      <point x="1092" y="619"/>
      <point x="1092" y="480" type="qcurve"/>
      <point x="1092" y="369"/>
      <point x="1006" y="174"/>
      <point x="852" y="30"/>
      <point x="750" y="-6" type="qcurve"/>
      <point x="666" y="-35"/>
      <point x="565" y="-143"/>
      <point x="562" y="-229" type="qcurve"/>
      <point x="561" y="-275"/>
      <point x="603" y="-340"/>
      <point x="658" y="-340" type="qcurve"/>
      <point x="687" y="-340"/>
      <point x="740" y="-325"/>
      <point x="762" y="-313" type="qcurve"/>
      <point x="804" y="-409" type="line"/>
      <point x="767" y="-428"/>
      <point x="684" y="-450"/>
    </contour>
    <contour>
      <point x="586" y="78" type="qcurve"/>
      <point x="699" y="78"/>
      <point x="873" y="177"/>
      <point x="972" y="357"/>
      <point x="972" y="480" type="qcurve"/>
      <point x="972" y="603"/>
      <point x="873" y="784"/>
      <point x="699" y="882"/>
      <point x="586" y="882" type="qcurve"/>
      <point x="473" y="882"/>
      <point x="299" y="784"/>
      <point x="200" y="603"/>
      <point x="200" y="480" type="qcurve"/>
      <point x="200" y="357"/>
      <point x="299" y="177"/>
      <point x="473" y="78"/>
    </contour>
  </outline>
</glyph>
<glyph name="gravecomb" format="2">
  <unicode hex="0300"/>
  <anchor x="-586" y="960" name="top"/>
  <outline>
    <contour>
      <point x="-618" y="1170" type="line"/>
      <point x="-812" y="1504" type="line"/>
      <point x="-686" y="1504" type="line"/>
      <point x="-506" y="1170" type="line"/>
    </contour>
  </outline>
</glyph>
<glyph name="acutecomb" format="2">
  <unicode hex="0301"/>
  <anchor x="-586" y="960" name="top"/>
  <outline>
    <contour>
      <point x="-650" y="1170" type="line"/>
      <point x="-468" y="1504" type="line"/>
      <point x="-348" y="1504" type="line"/>
      <point x="-542" y="1170" type="line"/>
    </contour>
  </outline>
</glyph>
<glyph name="dotaccentcomb" format="2">
  <unicode hex="0307"/>
  <anchor x="-586" y="960" name="top"/>
  <anchor x="-586" y="1284" name="top.1"/>
  <outline>
    <contour>
      <point x="-586" y="1162" type="qcurve"/>
      <point x="-625" y="1162"/>
      <point x="-680" y="1217"/>
      <point x="-680" y="1256" type="qcurve"/>
      <point x="-680" y="1295"/>
      <point x="-625" y="1350"/>
      <point x="-586" y="1350" type="qcurve"/>
      <point x="-547" y="1350"/>
      <point x="-492" y="1295"/>
      <point x="-492" y="1256" type="qcurve"/>
      <point x="-492" y="1217"/>
      <point x="-547" y="1162"/>
    </contour>
  </outline>
</glyph>
<glyph name="hookabovecomb" format="2">
  <unicode hex="0309"/>
  <anchor x="-586" y="960" name="top"/>
  <outline>
    <contour>
      <point x="-646" y="1170" type="line"/>
      <point x="-679" y="1238"/>
      <point x="-637" y="1329"/>
      <point x="-556" y="1360" type="qcurve"/>
      <point x="-485" y="1387"/>
      <point x="-440" y="1422"/>
      <point x="-440" y="1456" type="qcurve"/>
      <point x="-440" y="1500"/>
      <point x="-525" y="1550"/>
      <point x="-590" y="1550" type="qcurve"/>
      <point x="-638" y="1550"/>
      <point x="-738" y="1528"/>
      <point x="-776" y="1508" type="qcurve"/>
      <point x="-810" y="1586" type="line"/>
      <point x="-760" y="1610"/>
      <point x="-644" y="1634"/>
      <point x="-584" y="1634" type="qcurve"/>
      <point x="-480" y="1634"/>
      <point x="-344" y="1543"/>
      <point x="-344" y="1474" type="qcurve"/>
      <point x="-344" y="1416"/>
      <point x="-405" y="1350"/>
      <point x="-486" y="1314" type="qcurve"/>
      <point x="-552" y="1284"/>
      <point x="-579" y="1229"/>
      <point x="-554" y="1170" type="qcurve"/>
    </contour>
  </outline>
</glyph>
<glyph name="ringcomb" format="2">
  <unicode hex="030A"/>
  <anchor x="-586" y="960" name="top"/>
  <anchor x="-586" y="1464" name="top.1"/>
  <outline>
    <contour>
      <point x="-586" y="1100" type="qcurve"/>
      <point x="-654" y="1100"/>
      <point x="-767" y="1161"/>
      <point x="-834" y="1266"/>
      <point x="-834" y="1332" type="qcurve"/>
      <point x="-834" y="1397"/>
      <point x="-767" y="1503"/>
      <point x="-654" y="1566"/>
      <point x="-586" y="1566" type="qcurve"/>
      <point x="-519" y="1566"/>
      <point x="-407" y="1503"/>
      <point x="-340" y="1397"/>
      <point x="-340" y="1332" type="qcurve"/>
      <point x="-340" y="1266"/>
      <point x="-407" y="1161"/>
      <point x="-519" y="1100"/>
    </contour>
    <contour>
      <point x="-586" y="1188" type="qcurve"/>
      <point x="-521" y="1188"/>
      <point x="-444" y="1272"/>
      <point x="-444" y="1332" type="qcurve"/>
      <point x="-444" y="1392"/>
      <point x="-521" y="1476"/>
      <point x="-586" y="1476" type="qcurve"/>
      <point x="-650" y="1476"/>
      <point x="-730" y="1392"/>
      <point x="-730" y="1332" type="qcurve"/>
      <point x="-730" y="1272"/>
      <point x="-650" y="1188"/>
    </contour>
  </outline>
</glyph>
<glyph name="cedillacomb" format="2">
  <unicode hex="0327"/>
  <anchor x="-586" y="0" name="bottom"/>
  <outline>
    <contour>
      <point x="-602" y="-450" type="qcurve"/>
      <point x="-662" y="-450"/>
      <point x="-764" y="-421"/>
      <point x="-806" y="-394" type="qcurve"/>
      <point x="-768" y="-308" type="line"/>
      <point x="-750" y="-329"/>
      <point x="-654" y="-360"/>
      <point x="-606" y="-360" type="qcurve"/>
      <point x="-561" y="-360"/>
      <point x="-476" y="-319"/>
      <point x="-476" y="-270" type="qcurve"/>
      <point x="-476" y="-217"/>
      <point x="-585" y="-177"/>
      <point x="-650" y="-186" type="qcurve"/>
      <point x="-684" y="-126" type="line"/>
      <point x="-630" y="40" type="line"/>
      <point x="-548" y="40" type="line"/>
      <point x="-588" y="-94" type="line"/>
      <point x="-493" y="-100"/>
      <point x="-368" y="-186"/>
      <point x="-368" y="-266" type="qcurve"/>
      <point x="-368" y="-334"/>
      <point x="-446" y="-415"/>
      <point x="-555" y="-450"/>
    </contour>
  </outline>
</glyph>
<glyph name="ogonekcomb" format="2">
  <unicode hex="0328"/>
  <outline>
    <contour>
      <point x="-656" y="-450" type="qcurve"/>
      <point x="-755" y="-450"/>
      <point x="-857" y="-335"/>
      <point x="-856" y="-255" type="qcurve"/>
      <point x="-854" y="-170"/>
      <point x="-764" y="-41"/>
      <point x="-620" y="47"/>
      <point x="-536" y="68" type="qcurve"/>
      <point x="-496" y="0" type="line"/>
      <point x="-566" y="-19"/>
      <point x="-673" y="-79"/>
      <point x="-734" y="-167"/>
      <point x="-736" y="-229" type="qcurve"/>
      <point x="-737" y="-275"/>
      <point x="-695" y="-340"/>
      <point x="-640" y="-340" type="qcurve"/>
      <point x="-611" y="-340"/>
      <point x="-558" y="-325"/>
      <point x="-536" y="-313" type="qcurve"/>
      <point x="-494" y="-409" type="line"/>
      <point x="-531" y="-428"/>
      <point x="-614" y="-450"/>
    </contour>
  </outline>
</glyph>
<glyph name="dieresistonos" format="2">
  <unicode hex="0385"/>
  <outline>
    <contour>
      <point x="-642" y="1216" type="line"/>
      <point x="-574" y="1504" type="line"/>
      <point x="-466" y="1504" type="line"/>
      <point x="-546" y="1216" type="line"/>
    </contour>
    <contour>
      <point x="-804" y="1162" type="qcurve"/>
      <point x="-843" y="1162"/>
      <point x="-898" y="1217"/>
      <point x="-898" y="1256" type="qcurve"/>
      <point x="-898" y="1295"/>
      <point x="-843" y="1350"/>
      <point x="-804" y="1350" type="qcurve"/>
      <point x="-765" y="1350"/>
      <point x="-710" y="1295"/>
      <point x="-710" y="1256" type="qcurve"/>
      <point x="-710" y="1217"/>
      <point x="-765" y="1162"/>
    </contour>
    <contour>
      <point x="-348" y="1162" type="qcurve"/>
      <point x="-387" y="1162"/>
      <point x="-442" y="1217"/>
      <point x="-442" y="1256" type="qcurve"/>
      <point x="-442" y="1295"/>
      <point x="-387" y="1350"/>
      <point x="-348" y="1350" type="qcurve"/>
      <point x="-309" y="1350"/>
      <point x="-254" y="1295"/>
      <point x="-254" y="1256" type="qcurve"/>
      <point x="-254" y="1217"/>
      <point x="-309" y="1162"/>
    </contour>
  </outline>
</glyph>
<glyph name="Omega" format="2">
  <advance width="1676"/>
  <unicode hex="03A9"/>
  <anchor x="838" y="0" name="bottom"/>
  <outline>
    <contour>
      <point x="82" y="0" type="line"/>
      <point x="82" y="108" type="line"/>
      <point x="490" y="104" type="line"/>
      <point x="367" y="172"/>
      <point x="209" y="369"/>
      <point x="132" y="604"/>
      <point x="132" y="728" type="qcurve"/>
      <point x="132" y="884"/>
      <point x="236" y="1142"/>
      <point x="425" y="1328"/>
      <point x="684" y="1430"/>
      <point x="838" y="1430" type="qcurve"/>
      <point x="1044" y="1430"/>
      <point x="1363" y="1252"/>
      <point x="1544" y="936"/>
      <point x="1544" y="728" type="qcurve"/>
      <point x="1544" y="604"/>
      <point x="1467" y="369"/>
      <point x="1309" y="172"/>
      <point x="1186" y="104" type="qcurve"/>
      <point x="1594" y="108" type="line"/>
      <point x="1594" y="0" type="line"/>
      <point x="1000" y="0" type="line"/>
      <point x="1000" y="108" type="line"/>
      <point x="1115" y="146"/>
      <point x="1308" y="324"/>
      <point x="1424" y="577"/>
      <point x="1424" y="728" type="qcurve"/>
      <point x="1424" y="914"/>
      <point x="1271" y="1178"/>
      <point x="1006" y="1318"/>
      <point x="838" y="1318" type="qcurve"/>
      <point x="712" y="1318"/>
      <point x="498" y="1239"/>
      <point x="340" y="1086"/>
      <point x="252" y="868"/>
      <point x="252" y="728" type="qcurve"/>
      <point x="252" y="577"/>
      <point x="368" y="324"/>
      <point x="561" y="146"/>
      <point x="676" y="108" type="qcurve"/>
      <point x="676" y="0" type="line"/>
    </contour>
  </outline>
</glyph>
<glyph name="gamma" format="2">
  <advance width="1028"/>
  <unicode hex="03B3"/>
  <outline>
    <contour>
      <point x="444" y="-420" type="line"/>
      <point x="444" y="-6" type="line"/>
      <point x="42" y="960" type="line"/>
      <point x="172" y="960" type="line"/>
      <point x="524" y="104" type="line"/>
      <point x="494" y="104" type="line"/>
      <point x="563" y="203"/>
      <point x="695" y="463"/>
      <point x="802" y="787"/>
      <point x="831" y="980" type="qcurve"/>
      <point x="951" y="955" type="line"/>
      <point x="896" y="659"/>
      <point x="687" y="186"/>
      <point x="556" y="12" type="qcurve"/>
      <point x="556" y="-420" type="line"/>
    </contour>
  </outline>
</glyph>
<glyph name="kappa" format="2">
  <advance width="1056"/>
  <unicode hex="03BA"/>
  <outline>
    <contour>
      <point x="170" y="0" type="line"/>
      <point x="170" y="960" type="line"/>
      <point x="282" y="960" type="line"/>
      <point x="282" y="478" type="line"/>
      <point x="536" y="726" type="line"/>
      <point x="618" y="806"/>
      <point x="745" y="926"/>
      <point x="862" y="983"/>
      <point x="930" y="970" type="qcurve"/>
      <point x="938" y="864" type="line"/>
      <point x="884" y="876"/>
      <point x="791" y="832"/>
      <point x="688" y="734"/>
      <point x="618" y="664" type="qcurve"/>
      <point x="552" y="598" type="line"/>
      <point x="966" y="0" type="line"/>
      <point x="826" y="0" type="line"/>
      <point x="470" y="526" type="line"/>
      <point x="282" y="340" type="line"/>
      <point x="282" y="0" type="line"/>
    </contour>
  </outline>
</glyph>
<glyph name="lambda" format="2">
  <advance width="1034"/>
  <unicode hex="03BB"/>
  <outline>
    <contour>
      <point x="42" y="0" type="line"/>
      <point x="486" y="984" type="line"/>
      <point x="406" y="1214" type="line"/>
      <point x="384" y="1279"/>
      <point x="313" y="1362"/>
      <point x="250" y="1362" type="qcurve"/>
      <point x="231" y="1362"/>
      <point x="175" y="1351"/>
      <point x="142" y="1336" type="qcurve"/>
      <point x="114" y="1436" type="line"/>
      <point x="158" y="1456"/>
      <point x="233" y="1470"/>
      <point x="264" y="1470" type="qcurve"/>
      <point x="321" y="1470"/>
      <point x="409" y="1431"/>
      <point x="475" y="1352"/>
      <point x="498" y="1292" type="qcurve"/>
      <point x="992" y="0" type="line"/>
      <point x="866" y="0" type="line"/>
      <point x="542" y="846" type="line"/>
      <point x="164" y="0" type="line"/>
    </contour>
  </outline>
</glyph>
<glyph name="nu" format="2">
  <advance width="1005"/>
  <unicode hex="03BD"/>
  <outline>
    <contour>
      <point x="400" y="0" type="line"/>
      <point x="42" y="960" type="line"/>
      <point x="174" y="960" type="line"/>
      <point x="493" y="75" type="line"/>
      <point x="461" y="101" type="line"/>
      <point x="534" y="202"/>
      <point x="671" y="463"/>
      <point x="779" y="787"/>
      <point x="808" y="980" type="qcurve"/>
      <point x="928" y="955" type="line"/>
      <point x="873" y="659"/>
      <point x="659" y="183"/>
      <point x="516" y="0" type="qcurve"/>
    </contour>
  </outline>
</glyph>
<glyph name="rho" format="2">
  <advance width="1224"/>
  <unicode hex="03C1"/>
  <outline>
    <contour>
      <point x="140" y="-420" type="line"/>
      <point x="140" y="480" type="line"/>
      <point x="140" y="619"/>
      <point x="268" y="851"/>
      <point x="493" y="990"/>
      <point x="638" y="990" type="qcurve"/>
      <point x="792" y="990"/>
      <point x="1019" y="853"/>
      <point x="1144" y="621"/>
      <point x="1144" y="480" type="qcurve"/>
      <point x="1144" y="376"/>
      <point x="1072" y="191"/>
      <point x="940" y="50"/>
      <point x="759" y="-30"/>
      <point x="650" y="-30" type="qcurve"/>
      <point x="524" y="-30"/>
      <point x="309" y="80"/>
      <point x="252" y="170" type="qcurve"/>
      <point x="252" y="-420" type="line"/>
    </contour>
    <contour>
      <point x="638" y="78" type="qcurve"/>
      <point x="751" y="78"/>
      <point x="925" y="177"/>
      <point x="1024" y="357"/>
      <point x="1024" y="480" type="qcurve"/>
      <point x="1024" y="603"/>
      <point x="925" y="784"/>
      <point x="751" y="882"/>
      <point x="638" y="882" type="qcurve"/>
      <point x="525" y="882"/>
      <point x="351" y="784"/>
      <point x="252" y="603"/>
      <point x="252" y="480" type="qcurve"/>
      <point x="252" y="357"/>
      <point x="351" y="177"/>
      <point x="525" y="78"/>
    </contour>
  </outline>
</glyph>
<glyph name="sigma" format="2">
  <advance width="1250"/>
  <unicode hex="03C3"/>
  <outline>
    <contour>
      <point x="580" y="-30" type="qcurve"/>
      <point x="435" y="-30"/>
      <point x="209" y="109"/>
      <point x="80" y="341"/>
      <point x="80" y="480" type="qcurve"/>
      <point x="80" y="587"/>
      <point x="154" y="764"/>
      <point x="288" y="891"/>
      <point x="469" y="960"/>
      <point x="576" y="960" type="qcurve"/>
      <point x="1186" y="960" type="line"/>
      <point x="1186" y="856" type="line"/>
      <point x="860" y="856" type="line"/>
      <point x="968" y="792"/>
      <point x="1064" y="584"/>
      <point x="1064" y="468" type="qcurve"/>
      <point x="1064" y="364"/>
      <point x="993" y="183"/>
      <point x="864" y="47"/>
      <point x="687" y="-30"/>
    </contour>
    <contour>
      <point x="584" y="78" type="qcurve"/>
      <point x="693" y="78"/>
      <point x="856" y="169"/>
      <point x="946" y="341"/>
      <point x="946" y="464" type="qcurve"/>
      <point x="946" y="649"/>
      <point x="742" y="852"/>
      <point x="574" y="852" type="qcurve"/>
      <point x="468" y="852"/>
      <point x="299" y="768"/>
      <point x="200" y="603"/>
      <point x="200" y="480" type="qcurve"/>
      <point x="200" y="296"/>
      <point x="413" y="78"/>
    </contour>
  </outline>
</glyph>
<glyph name="phi" format="2">
  <advance width="1325"/>
  <unicode hex="03C6"/>
  <outline>
    <contour>
      <point x="577" y="-420" type="line"/>
      <point x="577" y="606" type="line"/>
      <point x="577" y="726"/>
      <point x="653" y="898"/>
      <point x="795" y="990"/>
      <point x="894" y="990" type="qcurve"/>
      <point x="1054" y="990"/>
      <point x="1245" y="774"/>
      <point x="1245" y="592" type="qcurve"/>
      <point x="1245" y="408"/>
      <point x="1102" y="134"/>
      <point x="838" y="-16"/>
      <point x="656" y="-16" type="qcurve"/>
      <point x="479" y="-16"/>
      <point x="221" y="111"/>
      <point x="80" y="348"/>
      <point x="80" y="513" type="qcurve"/>
      <point x="80" y="605"/>
      <point x="123" y="776"/>
      <point x="209" y="928"/>
      <point x="271" y="993" type="qcurve"/>
      <point x="370" y="936" type="line"/>
      <point x="286" y="853"/>
      <point x="200" y="639"/>
      <point x="200" y="513" type="qcurve"/>
      <point x="200" y="313"/>
      <point x="442" y="91"/>
      <point x="660" y="91" type="qcurve"/>
      <point x="809" y="91"/>
      <point x="1018" y="206"/>
      <point x="1129" y="425"/>
      <point x="1129" y="579" type="qcurve"/>
      <point x="1129" y="718"/>
      <point x="1001" y="882"/>
      <point x="894" y="882" type="qcurve"/>
      <point x="788" y="882"/>
      <point x="689" y="746"/>
      <point x="689" y="600" type="qcurve"/>
      <point x="689" y="-420" type="line"/>
    </contour>
  </outline>
</glyph>
<glyph name="chi" format="2">
  <advance width="1042"/>
  <unicode hex="03C7"/>
  <outline>
    <contour>
      <point x="72" y="-420" type="line"/>
      <point x="512" y="380" type="line"/>
      <point x="498" y="290" type="line"/>
      <point x="284" y="744" type="line"/>
      <point x="245" y="827"/>
      <point x="151" y="898"/>
      <point x="64" y="872" type="qcurve"/>
      <point x="42" y="970" type="line"/>
      <point x="173" y="1002"/>
      <point x="320" y="935"/>
      <point x="374" y="822" type="qcurve"/>
      <point x="576" y="398" type="line"/>
      <point x="542" y="398" type="line"/>
      <point x="838" y="960" type="line"/>
      <point x="970" y="960" type="line"/>
      <point x="602" y="276" type="line"/>
      <point x="614" y="364" type="line"/>
      <point x="1000" y="-420" type="line"/>
      <point x="866" y="-420" type="line"/>
      <point x="536" y="262" type="line"/>
      <point x="572" y="260" type="line"/>
      <point x="206" y="-420" type="line"/>
    </contour>
  </outline>
</glyph>
<glyph name="Djecyr" format="2">
  <advance width="1560"/>
  <unicode hex="0402"/>
  <outline>
    <contour>
      <point x="484" y="0" type="line"/>
      <point x="484" y="1292" type="line"/>
      <point x="70" y="1292" type="line"/>
      <point x="70" y="1400" type="line"/>
      <point x="1292" y="1400" type="line"/>
      <point x="1292" y="1292" type="line"/>
      <point x="600" y="1292" type="line"/>
      <point x="600" y="0" type="line"/>
    </contour>
    <contour>
      <point x="1078" y="-270" type="qcurve"/>
      <point x="1028" y="-184" type="line"/>
      <point x="1142" y="-138"/>
      <point x="1291" y="23"/>
      <point x="1364" y="222"/>
      <point x="1364" y="324" type="qcurve"/>
      <point x="1364" y="472"/>
      <point x="1247" y="653"/>
      <point x="1044" y="736"/>
      <point x="914" y="736" type="qcurve"/>
      <point x="818" y="736"/>
      <point x="627" y="698"/>
      <point x="528" y="656" type="qcurve"/>
      <point x="530" y="764" type="line"/>
      <point x="632" y="808"/>
      <point x="826" y="846"/>
      <point x="914" y="846" type="qcurve"/>
      <point x="1080" y="846"/>
      <point x="1335" y="732"/>
      <point x="1480" y="500"/>
      <point x="1480" y="324" type="qcurve"/>
      <point x="1480" y="201"/>
      <point x="1393" y="-35"/>
      <point x="1215" y="-221"/>
    </contour>
  </outline>
</glyph>
<glyph name="Ljecyr" format="2">
  <advance width="2120"/>
  <unicode hex="0409"/>
  <outline>
    <contour>
      <point x="124" y="-20" type="qcurve"/>
      <point x="64" y="88" type="line"/>
      <point x="131" y="110"/>
      <point x="228" y="177"/>
      <point x="296" y="292"/>
      <point x="336" y="479"/>
      <point x="354" y="760"/>
      <point x="354" y="960" type="qcurve"/>
      <point x="354" y="1400" type="line"/>
      <point x="1216" y="1400" type="line"/>
      <point x="1100" y="1292" type="line"/>
      <point x="470" y="1292" type="line"/>
      <point x="470" y="960" type="line"/>
      <point x="470" y="740"/>
      <point x="445" y="429"/>
      <point x="392" y="220"/>
      <point x="310" y="88"/>
      <point x="197" y="8"/>
    </contour>
    <contour>
      <point x="1216" y="108" type="line"/>
      <point x="1564" y="108" type="line"/>
      <point x="1731" y="108"/>
      <point x="1914" y="253"/>
      <point x="1914" y="392" type="qcurve"/>
      <point x="1914" y="527"/>
      <point x="1728" y="688"/>
      <point x="1566" y="688" type="qcurve"/>
      <point x="1216" y="688" type="line"/>
    </contour>
    <contour>
      <point x="1100" y="0" type="line"/>
      <point x="1100" y="1400" type="line"/>
      <point x="1216" y="1400" type="line"/>
      <point x="1216" y="796" type="line"/>
      <point x="1552" y="796" type="line"/>
      <point x="1694" y="796"/>
      <point x="1909" y="700"/>
      <point x="2030" y="521"/>
      <point x="2030" y="396" type="qcurve"/>
      <point x="2030" y="267"/>
      <point x="1918" y="91"/>
      <point x="1704" y="0"/>
      <point x="1550" y="0" type="qcurve"/>
    </contour>
  </outline>
</glyph>
<glyph name="Decyr" format="2">
  <advance width="1536"/>
  <unicode hex="0414"/>
  <outline>
    <contour>
      <point x="1140" y="0" type="line"/>
      <point x="1140" y="1292" type="line"/>
      <point x="470" y="1292" type="line"/>
      <point x="470" y="960" type="line"/>
      <point x="470" y="692"/>
      <point x="426" y="344"/>
      <point x="335" y="138"/>
      <point x="191" y="33"/>
      <point x="90" y="8" type="qcurve"/>
      <point x="44" y="92" type="line"/>
      <point x="137" y="114"/>
      <point x="258" y="206"/>
      <point x="326" y="393"/>
      <point x="354" y="712"/>
      <point x="354" y="960" type="qcurve"/>
      <point x="354" y="1400" type="line"/>
      <point x="1256" y="1400" type="line"/>
      <point x="1256" y="0" type="line"/>
    </contour>
    <contour>
      <point x="44" y="-360" type="line"/>
      <point x="44" y="92" type="line"/>
      <point x="164" y="82" type="line"/>
      <point x="226" y="108" type="line"/>
      <point x="1476" y="108" type="line"/>
      <point x="1476" y="-360" type="line"/>
      <point x="1368" y="-360" type="line"/>
      <point x="1368" y="0" type="line"/>
      <point x="152" y="0" type="line"/>
      <point x="152" y="-360" type="line"/>
    </contour>
  </outline>
</glyph>
<glyph name="Zecyr" format="2">
  <advance width="1180"/>
  <unicode hex="0417"/>
  <anchor x="548" y="1400" name="top"/>
  <anchor x="560" y="0" name="bottom"/>
  <outline>
    <contour>
      <point x="540" y="-30" type="qcurve"/>
      <point x="396" y="-30"/>
      <point x="154" y="53"/>
      <point x="70" y="126" type="qcurve"/>
      <point x="140" y="226" type="line"/>
      <point x="211" y="159"/>
      <point x="420" y="82"/>
      <point x="540" y="82" type="qcurve"/>
      <point x="661" y="82"/>
      <point x="837" y="156"/>
      <point x="933" y="288"/>
      <point x="934" y="376" type="qcurve"/>
      <point x="934" y="520"/>
      <point x="755" y="670"/>
      <point x="564" y="670" type="qcurve"/>
      <point x="300" y="670" type="line"/>
      <point x="300" y="778" type="line"/>
      <point x="554" y="778" type="line"/>
      <point x="655" y="778"/>
      <point x="806" y="845"/>
      <point x="890" y="969"/>
      <point x="890" y="1056" type="qcurve"/>
      <point x="890" y="1140"/>
      <point x="807" y="1257"/>
      <point x="653" y="1318"/>
      <point x="548" y="1318" type="qcurve"/>
      <point x="442" y="1318"/>
      <point x="258" y="1253"/>
      <point x="186" y="1190" type="qcurve"/>
      <point x="122" y="1278" type="line"/>
      <point x="203" y="1352"/>
      <point x="425" y="1430"/>
      <point x="554" y="1430" type="qcurve"/>
      <point x="693" y="1430"/>
      <point x="896" y="1341"/>
      <point x="1006" y="1174"/>
      <point x="1006" y="1058" type="qcurve"/>
      <point x="1006" y="987"/>
      <point x="933" y="853"/>
      <point x="823" y="754"/>
      <point x="768" y="736" type="qcurve"/>
      <point x="885" y="703"/>
      <point x="1052" y="515"/>
      <point x="1050" y="366" type="qcurve"/>
      <point x="1049" y="262"/>
      <point x="921" y="81"/>
      <point x="692" y="-30"/>
    </contour>
  </outline>
</glyph>
<glyph name="Elcyr" format="2">
  <advance width="1456"/>
  <unicode hex="041B"/>
  <outline>
    <contour>
      <point x="124" y="-20" type="qcurve"/>
      <point x="64" y="88" type="line"/>
      <point x="131" y="110"/>
      <point x="228" y="177"/>
      <point x="296" y="292"/>
      <point x="336" y="479"/>
      <point x="354" y="760"/>
      <point x="354" y="960" type="qcurve"/>
      <point x="354" y="1400" type="line"/>
      <point x="1256" y="1400" type="line"/>
      <point x="1256" y="0" type="line"/>
      <point x="1140" y="0" type="line"/>
      <point x="1140" y="1292" type="line"/>
      <point x="470" y="1292" type="line"/>
      <point x="470" y="960" type="line"/>
      <point x="470" y="740"/>
      <point x="445" y="429"/>
      <point x="392" y="220"/>
      <point x="310" y="88"/>
      <point x="197" y="8"/>
    </contour>
  </outline>
</glyph>
<glyph name="Ucyr" format="2">
  <advance width="1216"/>
  <unicode hex="0423"/>
  <anchor x="678" y="1400" name="top"/>
  <outline>
    <contour>
      <point x="204" y="-20" type="qcurve"/>
      <point x="144" y="90" type="line"/>
      <point x="243" y="120"/>
      <point x="419" y="236"/>
      <point x="572" y="418"/>
      <point x="636" y="546" type="qcurve"/>
      <point x="1062" y="1400" type="line"/>
      <point x="1196" y="1400" type="line"/>
      <point x="760" y="550" type="line"/>
      <point x="698" y="428"/>
      <point x="573" y="241"/>
      <point x="439" y="103"/>
      <point x="290" y="9"/>
    </contour>
    <contour>
      <point x="634" y="492" type="line"/>
      <point x="108" y="1400" type="line"/>
      <point x="252" y="1400" type="line"/>
      <point x="710" y="608" type="line"/>
    </contour>
  </outline>
</glyph>
<glyph name="Hardcyr" format="2">
  <advance width="1504"/>
  <unicode hex="042A"/>
  <anchor x="542" y="1400" name="top"/>
  <outline>
    <contour>
      <point x="484" y="1292" type="line"/>
      <point x="70" y="1292" type="line"/>
      <point x="70" y="1400" type="line"/>
      <point x="600" y="1400" type="line"/>
    </contour>
    <contour>
      <point x="484" y="0" type="line"/>
      <point x="484" y="1400" type="line"/>
      <point x="600" y="1400" type="line"/>
      <point x="600" y="796" type="line"/>
      <point x="936" y="796" type="line"/>
      <point x="1078" y="796"/>
      <point x="1293" y="700"/>
      <point x="1414" y="521"/>
      <point x="1414" y="396" type="qcurve"/>
      <point x="1414" y="299"/>
      <point x="1351" y="151"/>
      <point x="1228" y="51"/>
      <point x="1050" y="0"/>
      <point x="934" y="0" type="qcurve"/>
    </contour>
    <contour>
      <point x="600" y="108" type="line"/>
      <point x="948" y="108" type="line"/>
      <point x="1115" y="108"/>
      <point x="1298" y="253"/>
      <point x="1298" y="392" type="qcurve"/>
      <point x="1298" y="527"/>
      <point x="1112" y="688"/>
      <point x="950" y="688" type="qcurve"/>
      <point x="600" y="688" type="line"/>
    </contour>
  </outline>
</glyph>
<glyph name="Softcyr" format="2">
  <advance width="1220"/>
  <unicode hex="042C"/>
  <anchor x="258" y="1090" name="strokeshort"/>
  <outline>
    <contour>
      <point x="200" y="0" type="line"/>
      <point x="200" y="1400" type="line"/>
      <point x="316" y="1400" type="line"/>
      <point x="316" y="796" type="line"/>
      <point x="652" y="796" type="line"/>
      <point x="794" y="796"/>
      <point x="1009" y="700"/>
      <point x="1130" y="521"/>
      <point x="1130" y="396" type="qcurve"/>
      <point x="1130" y="299"/>
      <point x="1067" y="151"/>
      <point x="944" y="51"/>
      <point x="766" y="0"/>
      <point x="650" y="0" type="qcurve"/>
    </contour>
    <contour>
      <point x="316" y="108" type="line"/>
      <point x="664" y="108" type="line"/>
      <point x="831" y="108"/>
      <point x="1014" y="253"/>
      <point x="1014" y="392" type="qcurve"/>
      <point x="1014" y="527"/>
      <point x="828" y="688"/>
      <point x="666" y="688" type="qcurve"/>
      <point x="316" y="688" type="line"/>
    </contour>
  </outline>
</glyph>
<glyph name="becyr" format="2">
  <advance width="1199"/>
  <unicode hex="0431"/>
  <outline>
    <contour>
      <point x="619" y="-30" type="qcurve"/>
      <point x="498" y="-30"/>
      <point x="307" y="51"/>
      <point x="174" y="209"/>
      <point x="105" y="440"/>
      <point x="105" y="590" type="qcurve"/>
      <point x="105" y="754"/>
      <point x="148" y="1016"/>
      <point x="247" y="1211"/>
      <point x="415" y="1338"/>
      <point x="539" y="1366" type="qcurve"/>
      <point x="999" y="1470" type="line"/>
      <point x="1023" y="1358" type="line"/>
      <point x="577" y="1258" type="line"/>
      <point x="441" y="1227"/>
      <point x="291" y="1088"/>
      <point x="224" y="879"/>
      <point x="213" y="744" type="qcurve"/>
      <point x="276" y="855"/>
      <point x="485" y="990"/>
      <point x="633" y="990" type="qcurve"/>
      <point x="774" y="990"/>
      <point x="988" y="851"/>
      <point x="1109" y="619"/>
      <point x="1109" y="480" type="qcurve"/>
      <point x="1109" y="376"/>
      <point x="1039" y="191"/>
      <point x="908" y="50"/>
      <point x="729" y="-30"/>
    </contour>
    <contour>
      <point x="613" y="78" type="qcurve"/>
      <point x="723" y="78"/>
      <point x="893" y="177"/>
      <point x="989" y="357"/>
      <point x="989" y="480" type="qcurve"/>
      <point x="989" y="603"/>
      <point x="893" y="784"/>
      <point x="723" y="882"/>
      <point x="613" y="882" type="qcurve"/>
      <point x="503" y="882"/>
      <point x="333" y="784"/>
      <point x="237" y="603"/>
      <point x="237" y="480" type="qcurve"/>
      <point x="237" y="357"/>
      <point x="333" y="177"/>
      <point x="503" y="78"/>
    </contour>
  </outline>
</glyph>
<glyph name="zecyr" format="2">
  <advance width="1000"/>
  <unicode hex="0437"/>
  <anchor x="474" y="960" name="top"/>
  <anchor x="484" y="0" name="bottom"/>
  <outline>
    <contour>
      <point x="474" y="-20" type="qcurve"/>
      <point x="395" y="-20"/>
      <point x="252" y="2"/>
      <point x="126" y="50"/>
      <point x="74" y="90" type="qcurve"/>
      <point x="140" y="182" type="line"/>
      <point x="209" y="128"/>
      <point x="384" y="84"/>
      <point x="472" y="84" type="qcurve"/>
      <point x="616" y="84"/>
      <point x="788" y="174"/>
      <point x="788" y="280" type="qcurve"/>
      <point x="788" y="372"/>
      <point x="600" y="458"/>
      <point x="426" y="458" type="qcurve"/>
      <point x="248" y="458" type="line"/>
      <point x="248" y="562" type="line"/>
      <point x="424" y="562" type="line"/>
      <point x="574" y="562"/>
      <point x="752" y="637"/>
      <point x="752" y="728" type="qcurve"/>
      <point x="752" y="780"/>
      <point x="684" y="851"/>
      <point x="561" y="888"/>
      <point x="480" y="888" type="qcurve"/>
      <point x="392" y="888"/>
      <point x="230" y="837"/>
      <point x="168" y="784" type="qcurve"/>
      <point x="114" y="868" type="line"/>
      <point x="177" y="924"/>
      <point x="378" y="992"/>
      <point x="486" y="992" type="qcurve"/>
      <point x="600" y="992"/>
      <point x="770" y="932"/>
      <point x="864" y="819"/>
      <point x="864" y="738" type="qcurve"/>
      <point x="864" y="656"/>
      <point x="757" y="548"/>
      <point x="656" y="522" type="qcurve"/>
      <point x="775" y="500"/>
      <point x="900" y="371"/>
      <point x="900" y="278" type="qcurve"/>
      <point x="900" y="181"/>
      <point x="792" y="48"/>
      <point x="600" y="-20"/>
    </contour>
  </outline>
</glyph>
<glyph name="efcyr" format="2">
  <advance width="1446"/>
  <unicode hex="0444"/>
  <outline>
    <contour>
      <point x="666" y="-420" type="line"/>
      <point x="666" y="1440" type="line"/>
      <point x="778" y="1440" type="line"/>
      <point x="778" y="-420" type="line"/>
    </contour>
    <contour>
      <point x="722" y="-26" type="qcurve"/>
      <point x="541" y="-26"/>
      <point x="250" y="87"/>
      <point x="80" y="312"/>
      <point x="80" y="480" type="qcurve"/>
      <point x="80" y="649"/>
      <point x="250" y="874"/>
      <point x="541" y="986"/>
      <point x="722" y="986" type="qcurve"/>
      <point x="904" y="986"/>
      <point x="1196" y="874"/>
      <point x="1366" y="649"/>
      <point x="1366" y="480" type="qcurve"/>
      <point x="1366" y="354"/>
      <point x="1268" y="164"/>
      <point x="1092" y="38"/>
      <point x="858" y="-26"/>
    </contour>
    <contour>
      <point x="724" y="76" type="qcurve"/>
      <point x="875" y="76"/>
      <point x="1111" y="166"/>
      <point x="1246" y="345"/>
      <point x="1246" y="480" type="qcurve"/>
      <point x="1246" y="615"/>
      <point x="1107" y="795"/>
      <point x="869" y="884"/>
      <point x="720" y="884" type="qcurve"/>
      <point x="572" y="884"/>
      <point x="336" y="795"/>
      <point x="198" y="615"/>
      <point x="198" y="480" type="qcurve"/>
      <point x="198" y="345"/>
      <point x="336" y="166"/>
      <point x="574" y="76"/>
    </contour>
  </outline>
</glyph>
<glyph name="ylongcyr" format="2">
  <advance width="1374"/>
  <unicode hex="044B"/>
  <anchor x="712" y="960" name="top"/>
  <anchor x="672" y="0" name="bottom"/>
  <outline>
    <contour>
      <point x="170" y="0" type="line"/>
      <point x="170" y="960" type="line"/>
      <point x="282" y="960" type="line"/>
      <point x="282" y="104" type="line"/>
      <point x="514" y="104" type="line"/>
      <point x="654" y="104"/>
      <point x="790" y="203"/>
      <point x="790" y="306" type="qcurve"/>
      <point x="790" y="408"/>
      <point x="661" y="512"/>
      <point x="532" y="512" type="qcurve"/>
      <point x="256" y="512" type="line"/>
      <point x="256" y="616" type="line"/>
      <point x="538" y="616" type="line"/>
      <point x="711" y="616"/>
      <point x="910" y="453"/>
      <point x="910" y="306" type="qcurve"/>
      <point x="910" y="209"/>
      <point x="811" y="72"/>
      <point x="634" y="0"/>
      <point x="518" y="0" type="qcurve"/>
    </contour>
    <contour>
      <point x="1092" y="0" type="line"/>
      <point x="1092" y="960" type="line"/>
      <point x="1204" y="960" type="line"/>
      <point x="1204" y="0" type="line"/>
    </contour>
  </outline>
</glyph>
<glyph name="ereversedcyr" format="2">
  <advance width="1002"/>
  <unicode hex="044D"/>
  <anchor x="442" y="960" name="top"/>
  <anchor x="442" y="0" name="bottom"/>
  <outline>
    <contour>
      <point x="422" y="-30" type="qcurve"/>
      <point x="358" y="-30"/>
      <point x="226" y="-6"/>
      <point x="109" y="47"/>
      <point x="64" y="92" type="qcurve"/>
      <point x="130" y="182" type="line"/>
      <point x="185" y="131"/>
      <point x="341" y="78"/>
      <point x="420" y="78" type="qcurve"/>
      <point x="535" y="78"/>
      <point x="708" y="172"/>
      <point x="804" y="356"/>
      <point x="804" y="490" type="qcurve"/>
      <point x="804" y="678"/>
      <point x="603" y="882"/>
      <point x="430" y="882" type="qcurve"/>
      <point x="353" y="882"/>
      <point x="208" y="828"/>
      <point x="156" y="784" type="qcurve"/>
      <point x="98" y="874" type="line"/>
      <point x="157" y="928"/>
      <point x="347" y="990"/>
      <point x="438" y="990" type="qcurve"/>
      <point x="581" y="990"/>
      <point x="799" y="865"/>
      <point x="922" y="641"/>
      <point x="922" y="492" type="qcurve"/>
      <point x="922" y="372"/>
      <point x="850" y="179"/>
      <point x="717" y="43"/>
      <point x="534" y="-30"/>
    </contour>
    <contour>
      <point x="214" y="440" type="line"/>
      <point x="214" y="544" type="line"/>
      <point x="834" y="544" type="line"/>
      <point x="834" y="440" type="line"/>
    </contour>
  </outline>
</glyph>
<glyph name="ljecyr" format="2">
  <advance width="1672"/>
  <unicode hex="0459"/>
  <outline>
    <contour>
      <point x="98" y="-10" type="qcurve"/>
      <point x="50" y="98" type="line"/>
      <point x="152" y="124"/>
      <point x="247" y="247"/>
      <point x="274" y="477"/>
      <point x="274" y="664" type="qcurve"/>
      <point x="274" y="960" type="line"/>
      <point x="944" y="960" type="line"/>
      <point x="832" y="856" type="line"/>
      <point x="386" y="856" type="line"/>
      <point x="386" y="664" type="line"/>
      <point x="386" y="502"/>
      <point x="363" y="271"/>
      <point x="302" y="115"/>
      <point x="189" y="18"/>
    </contour>
    <contour>
      <point x="832" y="0" type="line"/>
      <point x="832" y="960" type="line"/>
      <point x="944" y="960" type="line"/>
      <point x="944" y="104" type="line"/>
      <point x="1186" y="104" type="line"/>
      <point x="1326" y="104"/>
      <point x="1462" y="203"/>
      <point x="1462" y="306" type="qcurve"/>
      <point x="1462" y="408"/>
      <point x="1333" y="512"/>
      <point x="1204" y="512" type="qcurve"/>
      <point x="918" y="512" type="line"/>
      <point x="918" y="616" type="line"/>
      <point x="1210" y="616" type="line"/>
      <point x="1383" y="616"/>
      <point x="1582" y="453"/>
      <point x="1582" y="306" type="qcurve"/>
      <point x="1582" y="209"/>
      <point x="1483" y="72"/>
      <point x="1306" y="0"/>
      <point x="1190" y="0" type="qcurve"/>
    </contour>
  </outline>
</glyph>
<glyph name="njecyr" format="2">
  <advance width="1684"/>
  <unicode hex="045A"/>
  <outline>
    <contour>
      <point x="170" y="0" type="line"/>
      <point x="170" y="960" type="line"/>
      <point x="282" y="960" type="line"/>
      <point x="282" y="0" type="line"/>
    </contour>
    <contour>
      <point x="864" y="0" type="line"/>
      <point x="864" y="960" type="line"/>
      <point x="976" y="960" type="line"/>
      <point x="976" y="104" type="line"/>
      <point x="1218" y="104" type="line"/>
      <point x="1347" y="104"/>
      <point x="1474" y="193"/>
      <point x="1474" y="286" type="qcurve"/>
      <point x="1474" y="378"/>
      <point x="1355" y="472"/>
      <point x="1236" y="472" type="qcurve"/>
      <point x="936" y="472" type="line"/>
      <point x="894" y="472" type="line"/>
      <point x="260" y="472" type="line"/>
      <point x="260" y="576" type="line"/>
      <point x="1242" y="576" type="line"/>
      <point x="1406" y="576"/>
      <point x="1594" y="424"/>
      <point x="1594" y="286" type="qcurve"/>
      <point x="1594" y="195"/>
      <point x="1500" y="67"/>
      <point x="1332" y="0"/>
      <point x="1222" y="0" type="qcurve"/>
    </contour>
  </outline>
</glyph>
<glyph name="gehookcyr" format="2">
  <advance width="1053"/>
  <unicode hex="0495"/>
  <anchor x="470" y="960" name="top"/>
  <anchor x="342" y="486" name="strokeshort"/>
  <outline>
    <contour>
      <point x="620" y="-192" type="qcurve"/>
      <point x="570" y="-110" type="line"/>
      <point x="656" y="-79"/>
      <point x="769" y="27"/>
      <point x="824" y="156"/>
      <point x="824" y="222" type="qcurve"/>
      <point x="824" y="362"/>
      <point x="631" y="486"/>
      <point x="484" y="486" type="qcurve"/>
      <point x="408" y="486"/>
      <point x="268" y="462"/>
      <point x="196" y="436" type="qcurve"/>
      <point x="198" y="534" type="line"/>
      <point x="278" y="563"/>
      <point x="426" y="586"/>
      <point x="492" y="586" type="qcurve"/>
      <point x="622" y="586"/>
      <point x="822" y="504"/>
      <point x="936" y="344"/>
      <point x="936" y="226" type="qcurve"/>
      <point x="936" y="140"/>
      <point x="867" y="-25"/>
      <point x="727" y="-156"/>
    </contour>
    <contour>
      <point x="170" y="0" type="line"/>
      <point x="170" y="960" type="line"/>
      <point x="772" y="960" type="line"/>
      <point x="772" y="856" type="line"/>
      <point x="282" y="856" type="line"/>
      <point x="282" y="0" type="line"/>
    </contour>
  </outline>
</glyph>
<glyph name="xatailcyr" format="2">
  <advance width="934"/>
  <unicode hex="04B3"/>
  <outline>
    <contour>
      <point x="776" y="-300" type="line"/>
      <point x="776" y="104" type="line"/>
      <point x="880" y="104" type="line"/>
      <point x="880" y="-300" type="line"/>
    </contour>
    <contour>
      <point x="38" y="0" type="line"/>
      <point x="388" y="492" type="line"/>
      <point x="60" y="960" type="line"/>
      <point x="202" y="960" type="line"/>
      <point x="460" y="582" type="line"/>
      <point x="710" y="960" type="line"/>
      <point x="844" y="960" type="line"/>
      <point x="528" y="498" type="line"/>
      <point x="876" y="0" type="line"/>
      <point x="732" y="0" type="line"/>
      <point x="456" y="408" type="line"/>
      <point x="174" y="0" type="line"/>
    </contour>
  </outline>
</glyph>
<glyph name="chevertcyr" format="2">
  <advance width="1036"/>
  <unicode hex="04B9"/>
  <anchor x="472" y="960" name="top"/>
  <outline>
    <contour>
      <point x="424" y="168" type="line"/>
      <point x="424" y="728" type="line"/>
      <point x="524" y="728" type="line"/>
      <point x="524" y="168" type="line"/>
    </contour>
    <contour>
      <point x="754" y="0" type="line"/>
      <point x="754" y="418" type="line"/>
      <point x="679" y="399"/>
      <point x="544" y="380"/>
      <point x="466" y="380" type="qcurve"/>
      <point x="328" y="380"/>
      <point x="158" y="460"/>
      <point x="80" y="613"/>
      <point x="80" y="722" type="qcurve"/>
      <point x="80" y="960" type="line"/>
      <point x="192" y="960" type="line"/>
      <point x="192" y="740" type="line"/>
      <point x="192" y="616"/>
      <point x="319" y="488"/>
      <point x="472" y="488" type="qcurve"/>
      <point x="559" y="488"/>
      <point x="693" y="505"/>
      <point x="754" y="518" type="qcurve"/>
      <point x="754" y="960" type="line"/>
      <point x="866" y="960" type="line"/>
      <point x="866" y="0" type="line"/>
    </contour>
  </outline>
</glyph>
<glyph name="Shhacyr" format="2">
  <advance width="1326"/>
  <unicode hex="04BA"/>
  <outline>
    <contour>
      <point x="200" y="0" type="line"/>
      <point x="200" y="1400" type="line"/>
      <point x="316" y="1400" type="line"/>
      <point x="316" y="812" type="line"/>
      <point x="412" y="838"/>
      <point x="599" y="866"/>
      <point x="708" y="866" type="qcurve"/>
      <point x="871" y="866"/>
      <point x="1093" y="765"/>
      <point x="1206" y="549"/>
      <point x="1206" y="378" type="qcurve"/>
      <point x="1206" y="0" type="line"/>
      <point x="1090" y="0" type="line"/>
      <point x="1090" y="358" type="line"/>
      <point x="1090" y="573"/>
      <point x="894" y="748"/>
      <point x="708" y="748" type="qcurve"/>
      <point x="590" y="748"/>
      <point x="406" y="723"/>
      <point x="316" y="702" type="qcurve"/>
      <point x="316" y="0" type="line"/>
    </contour>
  </outline>
</glyph>
<glyph name="Germandbls" format="2">
  <advance width="1388"/>
  <unicode hex="1E9E"/>
  <outline>
    <contour>
      <point x="892" y="-32" type="qcurve"/>
      <point x="849" y="-32"/>
      <point x="711" y="-14"/>
      <point x="624" y="14" type="qcurve"/>
      <point x="664" y="112" type="line"/>
      <point x="712" y="96"/>
      <point x="835" y="74"/>
      <point x="904" y="75" type="qcurve"/>
      <point x="992" y="76"/>
      <point x="1121" y="124"/>
      <point x="1192" y="216"/>
      <point x="1192" y="282" type="qcurve"/>
      <point x="1192" y="342"/>
      <point x="1126" y="425"/>
      <point x="1021" y="488"/>
      <point x="903" y="549"/>
      <point x="798" y="623"/>
      <point x="732" y="728"/>
      <point x="732" y="804" type="qcurve"/>
      <point x="732" y="877"/>
      <point x="795" y="1004"/>
      <point x="925" y="1150"/>
      <point x="1026" y="1250" type="qcurve"/>
      <point x="990" y="1266"/>
      <point x="909" y="1298"/>
      <point x="806" y="1320"/>
      <point x="738" y="1320" type="qcurve"/>
      <point x="534" y="1320"/>
      <point x="314" y="1097"/>
      <point x="314" y="908" type="qcurve"/>
      <point x="314" y="0" type="line"/>
      <point x="198" y="0" type="line"/>
      <point x="198" y="908" type="line"/>
      <point x="198" y="1059"/>
      <point x="333" y="1295"/>
      <point x="576" y="1430"/>
      <point x="738" y="1430" type="qcurve"/>
      <point x="876" y="1430"/>
      <point x="1078" y="1360"/>
      <point x="1154" y="1318" type="qcurve"/>
      <point x="1154" y="1222" type="line"/>
      <point x="1038" y="1114"/>
      <point x="911" y="970"/>
      <point x="862" y="864"/>
      <point x="862" y="814" type="qcurve"/>
      <point x="862" y="758"/>
      <point x="928" y="675"/>
      <point x="1032" y="607"/>
      <point x="1148" y="542"/>
      <point x="1252" y="465"/>
      <point x="1318" y="365"/>
      <point x="1318" y="296" type="qcurve"/>
      <point x="1318" y="195"/>
      <point x="1212" y="49"/>
      <point x="1020" y="-31"/>
    </contour>
  </outline>
</glyph>
<glyph name="quotedblright" format="2">
  <advance width="848"/>
  <unicode hex="201D"/>
  <outline>
    <contour>
      <point x="144" y="996" type="qcurve"/>
      <point x="86" y="1065" type="line"/>
      <point x="148" y="1100"/>
      <point x="242" y="1188"/>
      <point x="252" y="1228" type="qcurve"/>
      <point x="221" y="1226"/>
      <point x="171" y="1249"/>
      <point x="142" y="1293"/>
      <point x="142" y="1322" type="qcurve" smooth="yes"/>
      <point x="142" y="1364"/>
      <point x="201" y="1420"/>
      <point x="246" y="1420" type="qcurve" smooth="yes"/>
      <point x="297" y="1420"/>
      <point x="358" y="1352"/>
      <point x="358" y="1289" type="qcurve" smooth="yes"/>
      <point x="358" y="1242"/>
      <point x="308" y="1138"/>
      <point x="213" y="1038"/>
    </contour>
    <contour>
      <point x="492" y="996" type="qcurve"/>
      <point x="434" y="1065" type="line"/>
      <point x="496" y="1100"/>
      <point x="590" y="1188"/>
      <point x="600" y="1228" type="qcurve"/>
      <point x="569" y="1226"/>
      <point x="519" y="1249"/>
      <point x="490" y="1293"/>
      <point x="490" y="1322" type="qcurve" smooth="yes"/>
      <point x="490" y="1364"/>
      <point x="549" y="1420"/>
      <point x="594" y="1420" type="qcurve" smooth="yes"/>
      <point x="645" y="1420"/>
      <point x="706" y="1352"/>
      <point x="706" y="1289" type="qcurve" smooth="yes"/>
      <point x="706" y="1242"/>
      <point x="656" y="1138"/>
      <point x="561" y="1038"/>
    </contour>
  </outline>
</glyph>
<glyph name="bullet" format="2">
  <advance width="1000"/>
  <unicode hex="2022"/>
  <outline>
    <contour>
      <point x="500" y="396" type="qcurve"/>
      <point x="414" y="396"/>
      <point x="279" y="472"/>
      <point x="202" y="604"/>
      <point x="202" y="688" type="qcurve"/>
      <point x="202" y="772"/>
      <point x="279" y="904"/>
      <point x="414" y="980"/>
      <point x="500" y="980" type="qcurve"/>
      <point x="586" y="980"/>
      <point x="721" y="904"/>
      <point x="798" y="772"/>
      <point x="798" y="688" type="qcurve"/>
      <point x="798" y="604"/>
      <point x="721" y="472"/>
      <point x="586" y="396"/>
    </contour>
  </outline>
</glyph>
<glyph name="lira" format="2">
  <advance width="1296"/>
  <unicode hex="20A4"/>
  <outline>
    <contour>
      <point x="202" y="0" type="line"/>
      <point x="202" y="104" type="line"/>
      <point x="298" y="137"/>
      <point x="425" y="224"/>
      <point x="488" y="344"/>
      <point x="488" y="426" type="qcurve"/>
      <point x="488" y="506"/>
      <point x="440" y="660"/>
      <point x="376" y="815"/>
      <point x="328" y="976"/>
      <point x="328" y="1062" type="qcurve"/>
      <point x="328" y="1174"/>
      <point x="438" y="1339"/>
      <point x="630" y="1430"/>
      <point x="754" y="1430" type="qcurve"/>
      <point x="826" y="1430"/>
      <point x="957" y="1400"/>
      <point x="1070" y="1345"/>
      <point x="1116" y="1308" type="qcurve"/>
      <point x="1058" y="1220" type="line"/>
      <point x="992" y="1274"/>
      <point x="840" y="1324"/>
      <point x="750" y="1324" type="qcurve"/>
      <point x="593" y="1324"/>
      <point x="444" y="1165"/>
      <point x="444" y="1048" type="qcurve"/>
      <point x="444" y="973"/>
      <point x="488" y="813"/>
      <point x="546" y="650"/>
      <point x="590" y="490"/>
      <point x="590" y="416" type="qcurve"/>
      <point x="590" y="334"/>
      <point x="518" y="175"/>
      <point x="404" y="104" type="qcurve"/>
      <point x="1154" y="104" type="line"/>
      <point x="1154" y="0" type="line"/>
    </contour>
    <contour>
      <point x="180" y="804" type="line"/>
      <point x="180" y="904" type="line"/>
      <point x="1018" y="904" type="line"/>
      <point x="1018" y="804" type="line"/>
    </contour>
    <contour>
      <point x="180" y="496" type="line"/>
      <point x="180" y="596" type="line"/>
      <point x="1018" y="596" type="line"/>
      <point x="1018" y="496" type="line"/>
    </contour>
  </outline>
</glyph>
<glyph name="peseta" format="2">
  <advance width="1296"/>
  <unicode hex="20A7"/>
  <outline>
    <contour>
      <point x="250" y="0" type="line"/>
      <point x="250" y="1400" type="line"/>
      <point x="662" y="1400" type="line"/>
      <point x="787" y="1400"/>
      <point x="981" y="1304"/>
      <point x="1092" y="1125"/>
      <point x="1092" y="1002" type="qcurve"/>
      <point x="1092" y="873"/>
      <point x="991" y="697"/>
      <point x="798" y="606"/>
      <point x="660" y="606" type="qcurve"/>
      <point x="364" y="606" type="line"/>
      <point x="364" y="0" type="line"/>
    </contour>
    <contour>
      <point x="364" y="710" type="line"/>
      <point x="670" y="710" type="line"/>
      <point x="768" y="710"/>
      <point x="906" y="776"/>
      <point x="978" y="904"/>
      <point x="978" y="998" type="qcurve"/>
      <point x="978" y="1133"/>
      <point x="813" y="1296"/>
      <point x="672" y="1296" type="qcurve"/>
      <point x="364" y="1296" type="line"/>
    </contour>
    <contour>
      <point x="58" y="948" type="line"/>
      <point x="58" y="1048" type="line"/>
      <point x="1234" y="1048" type="line"/>
      <point x="1234" y="948" type="line"/>
    </contour>
  </outline>
</glyph>
<glyph name="dong" format="2">
  <advance width="1296"/>
  <unicode hex="20AB"/>
  <anchor x="1108" y="1440" name="Anchor_2"/>
  <anchor x="996" y="1204" name="strokeshort"/>
  <outline>
    <contour>
      <point x="108" y="-282" type="line"/>
      <point x="108" y="-190" type="line"/>
      <point x="1108" y="-190" type="line"/>
      <point x="1108" y="-282" type="line"/>
    </contour>
    <contour>
      <point x="626" y="1152" type="line"/>
      <point x="626" y="1256" type="line"/>
      <point x="1246" y="1256" type="line"/>
      <point x="1246" y="1152" type="line"/>
    </contour>
    <contour>
      <point x="590" y="-30" type="qcurve"/>
      <point x="445" y="-30"/>
      <point x="226" y="109"/>
      <point x="104" y="341"/>
      <point x="104" y="480" type="qcurve"/>
      <point x="104" y="584"/>
      <point x="174" y="769"/>
      <point x="303" y="910"/>
      <point x="481" y="990"/>
      <point x="590" y="990" type="qcurve"/>
      <point x="743" y="990"/>
      <point x="951" y="865"/>
      <point x="1014" y="766" type="qcurve"/>
      <point x="996" y="742" type="line"/>
      <point x="996" y="1440" type="line"/>
      <point x="1108" y="1440" type="line"/>
      <point x="1108" y="0" type="line"/>
      <point x="996" y="0" type="line"/>
      <point x="996" y="212" type="line"/>
      <point x="1014" y="186" type="line"/>
      <point x="950" y="95"/>
      <point x="754" y="-30"/>
    </contour>
    <contour>
      <point x="610" y="78" type="qcurve"/>
      <point x="723" y="78"/>
      <point x="897" y="177"/>
      <point x="996" y="357"/>
      <point x="996" y="480" type="qcurve"/>
      <point x="996" y="603"/>
      <point x="897" y="784"/>
      <point x="723" y="882"/>
      <point x="610" y="882" type="qcurve"/>
      <point x="497" y="882"/>
      <point x="323" y="784"/>
      <point x="224" y="603"/>
      <point x="224" y="480" type="qcurve"/>
      <point x="224" y="357"/>
      <point x="323" y="177"/>
      <point x="497" y="78"/>
    </contour>
  </outline>
</glyph>
<glyph name="Euro" format="2">
  <advance width="1296"/>
  <unicode hex="20AC"/>
  <outline>
    <contour>
      <point x="820" y="-30" type="qcurve"/>
      <point x="670" y="-30"/>
      <point x="435" y="100"/>
      <point x="281" y="336"/>
      <point x="252" y="496" type="qcurve"/>
      <point x="60" y="496" type="line"/>
      <point x="60" y="596" type="line"/>
      <point x="240" y="596" type="line"/>
      <point x="236" y="650"/>
      <point x="238" y="762"/>
      <point x="242" y="804" type="qcurve"/>
      <point x="60" y="804" type="line"/>
      <point x="60" y="904" type="line"/>
      <point x="260" y="904" type="line"/>
      <point x="294" y="1060"/>
      <point x="453" y="1297"/>
      <point x="681" y="1430"/>
      <point x="820" y="1430" type="qcurve"/>
      <point x="897" y="1430"/>
      <point x="1031" y="1399"/>
      <point x="1144" y="1337"/>
      <point x="1190" y="1292" type="qcurve"/>
      <point x="1134" y="1198" type="line"/>
      <point x="1077" y="1257"/>
      <point x="924" y="1320"/>
      <point x="828" y="1320" type="qcurve"/>
      <point x="648" y="1320"/>
      <point x="400" y="1099"/>
      <point x="356" y="904" type="qcurve"/>
      <point x="880" y="904" type="line"/>
      <point x="880" y="804" type="line"/>
      <point x="340" y="804" type="line"/>
      <point x="334" y="758"/>
      <point x="336" y="635"/>
      <point x="340" y="596" type="qcurve"/>
      <point x="880" y="596" type="line"/>
      <point x="880" y="496" type="line"/>
      <point x="356" y="496" type="line"/>
      <point x="400" y="298"/>
      <point x="653" y="82"/>
      <point x="840" y="82" type="qcurve"/>
      <point x="935" y="82"/>
      <point x="1107" y="151"/>
      <point x="1180" y="230" type="qcurve"/>
      <point x="1226" y="130" type="line"/>
      <point x="1138" y="46"/>
      <point x="937" y="-30"/>
    </contour>
  </outline>
</glyph>
<glyph name="guarani" format="2">
  <advance width="1296"/>
  <unicode hex="20B2"/>
  <anchor x="690" y="1400" name="top"/>
  <outline>
    <contour>
      <point x="762" y="-30" type="qcurve"/>
      <point x="617" y="-30"/>
      <point x="373" y="75"/>
      <point x="194" y="267"/>
      <point x="96" y="534"/>
      <point x="96" y="696" type="qcurve"/>
      <point x="96" y="860"/>
      <point x="191" y="1129"/>
      <point x="364" y="1324"/>
      <point x="600" y="1430"/>
      <point x="742" y="1430" type="qcurve"/>
      <point x="841" y="1430"/>
      <point x="1035" y="1372"/>
      <point x="1108" y="1312" type="qcurve"/>
      <point x="1054" y="1220" type="line"/>
      <point x="982" y="1271"/>
      <point x="814" y="1322"/>
      <point x="734" y="1322" type="qcurve"/>
      <point x="617" y="1322"/>
      <point x="426" y="1235"/>
      <point x="290" y="1072"/>
      <point x="216" y="843"/>
      <point x="216" y="700" type="qcurve"/>
      <point x="216" y="505"/>
      <point x="353" y="224"/>
      <point x="601" y="74"/>
      <point x="766" y="74" type="qcurve"/>
      <point x="862" y="74"/>
      <point x="1002" y="121"/>
      <point x="1036" y="148" type="qcurve"/>
      <point x="1036" y="684" type="line"/>
      <point x="1144" y="684" type="line"/>
      <point x="1144" y="92" type="line"/>
      <point x="1102" y="54"/>
      <point x="965" y="-1"/>
      <point x="818" y="-30"/>
    </contour>
    <contour>
      <point x="640" y="-160" type="line"/>
      <point x="640" y="1560" type="line"/>
      <point x="740" y="1560" type="line"/>
      <point x="740" y="-160" type="line"/>
    </contour>
  </outline>
</glyph>
<glyph name="cedi" format="2">
  <advance width="1296"/>
  <unicode hex="20B5"/>
  <anchor x="714" y="1400" name="top"/>
  <anchor x="714" y="0" name="bottom"/>
  <outline>
    <contour>
      <point x="752" y="-30" type="qcurve"/>
      <point x="555" y="-30"/>
      <point x="263" y="150"/>
      <point x="102" y="471"/>
      <point x="102" y="684" type="qcurve"/>
      <point x="102" y="845"/>
      <point x="198" y="1118"/>
      <point x="373" y="1319"/>
      <point x="610" y="1430"/>
      <point x="750" y="1430" type="qcurve"/>
      <point x="884" y="1430"/>
      <point x="1096" y="1357"/>
      <point x="1166" y="1294" type="qcurve"/>
      <point x="1098" y="1202" type="line"/>
      <point x="1032" y="1264"/>
      <point x="864" y="1324"/>
      <point x="760" y="1324" type="qcurve"/>
      <point x="638" y="1324"/>
      <point x="439" y="1238"/>
      <point x="297" y="1075"/>
      <point x="220" y="845"/>
      <point x="220" y="702" type="qcurve"/>
      <point x="220" y="504"/>
      <point x="355" y="225"/>
      <point x="603" y="78"/>
      <point x="772" y="78" type="qcurve"/>
      <point x="877" y="78"/>
      <point x="1067" y="147"/>
      <point x="1148" y="226" type="qcurve"/>
      <point x="1204" y="130" type="line"/>
      <point x="1107" y="46"/>
      <point x="883" y="-30"/>
    </contour>
    <contour>
      <point x="664" y="-160" type="line"/>
      <point x="664" y="1560" type="line"/>
      <point x="764" y="1560" type="line"/>
      <point x="764" y="-160" type="line"/>
    </contour>
  </outline>
</glyph>
<glyph name="turkishlira" format="2">
  <advance width="1296"/>
  <unicode hex="20BA"/>
  <outline>
    <contour>
      <point x="544" y="-30" type="qcurve"/>
      <point x="478" y="-30"/>
      <point x="360" y="-17"/>
      <point x="300" y="-2" type="qcurve"/>
      <point x="300" y="1400" type="line"/>
      <point x="416" y="1400" type="line"/>
      <point x="416" y="40" type="line"/>
      <point x="380" y="96" type="line"/>
      <point x="430" y="87"/>
      <point x="522" y="78"/>
      <point x="564" y="78" type="qcurve"/>
      <point x="797" y="78"/>
      <point x="1060" y="315"/>
      <point x="1052" y="542" type="qcurve"/>
      <point x="1154" y="564" type="line"/>
      <point x="1164" y="371"/>
      <point x="1015" y="106"/>
      <point x="733" y="-30"/>
    </contour>
    <contour>
      <point x="124" y="366" type="line"/>
      <point x="124" y="464" type="line"/>
      <point x="354" y="584" type="line"/>
      <point x="354" y="574" type="line"/>
      <point x="968" y="898" type="line"/>
      <point x="968" y="800" type="line"/>
      <point x="354" y="476" type="line"/>
      <point x="354" y="486" type="line"/>
    </contour>
    <contour>
      <point x="124" y="664" type="line"/>
      <point x="124" y="762" type="line"/>
      <point x="354" y="882" type="line"/>
      <point x="354" y="872" type="line"/>
      <point x="968" y="1196" type="line"/>
      <point x="968" y="1098" type="line"/>
      <point x="354" y="774" type="line"/>
      <point x="354" y="784" type="line"/>
    </contour>
  </outline>
</glyph>
<glyph name="ae.ss01" format="2">
  <advance width="1992"/>
  <anchor x="1036" y="960" name="top"/>
  <outline>
    <contour>
      <point x="584" y="-30" type="qcurve"/>
      <point x="434" y="-30"/>
      <point x="207" y="109"/>
      <point x="80" y="341"/>
      <point x="80" y="480" type="qcurve"/>
      <point x="80" y="584"/>
      <point x="153" y="769"/>
      <point x="286" y="910"/>
      <point x="472" y="990"/>
      <point x="584" y="990" type="qcurve"/>
      <point x="731" y="990"/>
      <point x="921" y="869"/>
      <point x="982" y="780" type="qcurve"/>
      <point x="964" y="754" type="line"/>
      <point x="964" y="960" type="line"/>
      <point x="1076" y="960" type="line"/>
      <point x="1076" y="754" type="line"/>
      <point x="1058" y="778" type="line"/>
      <point x="1123" y="877"/>
      <point x="1335" y="990"/>
      <point x="1464" y="990" type="qcurve"/>
      <point x="1612" y="990"/>
      <point x="1822" y="852"/>
      <point x="1924" y="616"/>
      <point x="1910" y="468" type="qcurve"/>
      <point x="1096" y="468" type="line"/>
      <point x="1090" y="351"/>
      <point x="1184" y="176"/>
      <point x="1368" y="78"/>
      <point x="1496" y="78" type="qcurve"/>
      <point x="1573" y="78"/>
      <point x="1726" y="133"/>
      <point x="1780" y="184" type="qcurve"/>
      <point x="1846" y="90" type="line"/>
      <point x="1796" y="49"/>
      <point x="1675" y="-4"/>
      <point x="1545" y="-30"/>
      <point x="1482" y="-30" type="qcurve"/>
      <point x="1344" y="-30"/>
      <point x="1124" y="81"/>
      <point x="1058" y="180" type="qcurve"/>
      <point x="1076" y="204" type="line"/>
      <point x="1076" y="0" type="line"/>
      <point x="964" y="0" type="line"/>
      <point x="964" y="202" type="line"/>
      <point x="982" y="176" type="line"/>
      <point x="921" y="89"/>
      <point x="731" y="-30"/>
    </contour>
    <contour>
      <point x="586" y="78" type="qcurve"/>
      <point x="699" y="78"/>
      <point x="873" y="177"/>
      <point x="972" y="357"/>
      <point x="972" y="480" type="qcurve"/>
      <point x="972" y="603"/>
      <point x="873" y="784"/>
      <point x="699" y="882"/>
      <point x="586" y="882" type="qcurve"/>
      <point x="473" y="882"/>
      <point x="299" y="784"/>
      <point x="200" y="603"/>
      <point x="200" y="480" type="qcurve"/>
      <point x="200" y="357"/>
      <point x="299" y="177"/>
      <point x="473" y="78"/>
    </contour>
    <contour>
      <point x="1100" y="572" type="qcurve"/>
      <point x="1790" y="572" type="line"/>
      <point x="1792" y="719"/>
      <point x="1620" y="882"/>
      <point x="1464" y="882" type="qcurve"/>
      <point x="1313" y="882"/>
      <point x="1109" y="719"/>
    </contour>
  </outline>
</glyph>
<glyph name="aogonek.ss01" format="2">
  <advance width="1254"/>
  <anchor x="596" y="960" name="top"/>
  <anchor x="596" y="0" name="bottom"/>
  <outline>
    <contour>
      <point x="924" y="-450" type="qcurve"/>
      <point x="825" y="-450"/>
      <point x="723" y="-335"/>
      <point x="724" y="-255" type="qcurve"/>
      <point x="726" y="-170"/>
      <point x="816" y="-41"/>
      <point x="960" y="47"/>
      <point x="1044" y="68" type="qcurve"/>
      <point x="1084" y="0" type="line"/>
      <point x="1014" y="-19"/>
      <point x="907" y="-79"/>
      <point x="846" y="-167"/>
      <point x="844" y="-229" type="qcurve"/>
      <point x="843" y="-275"/>
      <point x="885" y="-340"/>
      <point x="940" y="-340" type="qcurve"/>
      <point x="969" y="-340"/>
      <point x="1022" y="-325"/>
      <point x="1044" y="-313" type="qcurve"/>
      <point x="1086" y="-409" type="line"/>
      <point x="1049" y="-428"/>
      <point x="966" y="-450"/>
    </contour>
    <contour>
      <point x="584" y="-30" type="qcurve"/>
      <point x="434" y="-30"/>
      <point x="207" y="109"/>
      <point x="80" y="341"/>
      <point x="80" y="480" type="qcurve"/>
      <point x="80" y="584"/>
      <point x="153" y="769"/>
      <point x="286" y="910"/>
      <point x="472" y="990"/>
      <point x="584" y="990" type="qcurve"/>
      <point x="736" y="990"/>
      <point x="929" y="865"/>
      <point x="990" y="772" type="qcurve"/>
      <point x="972" y="748" type="line"/>
      <point x="972" y="960" type="line"/>
      <point x="1084" y="960" type="line"/>
      <point x="1084" y="0" type="line"/>
      <point x="972" y="0" type="line"/>
      <point x="972" y="212" type="line"/>
      <point x="990" y="188" type="line"/>
      <point x="929" y="95"/>
      <point x="736" y="-30"/>
    </contour>
    <contour>
      <point x="586" y="78" type="qcurve"/>
      <point x="699" y="78"/>
      <point x="873" y="177"/>
      <point x="972" y="357"/>
      <point x="972" y="480" type="qcurve"/>
      <point x="972" y="603"/>
      <point x="873" y="784"/>
      <point x="699" y="882"/>
      <point x="586" y="882" type="qcurve"/>
      <point x="473" y="882"/>
      <point x="299" y="784"/>
      <point x="200" y="603"/>
      <point x="200" y="480" type="qcurve"/>
      <point x="200" y="357"/>
      <point x="299" y="177"/>
      <point x="473" y="78"/>
    </contour>
  </outline>
</glyph>
<glyph name="breveinvertedcomb.narrow" format="2">
  <anchor x="-584" y="960" name="top"/>
  <outline>
    <contour>
      <point x="-868" y="1170" type="line"/>
      <point x="-871" y="1269"/>
      <point x="-799" y="1425"/>
      <point x="-669" y="1514"/>
      <point x="-584" y="1514" type="qcurve"/>
      <point x="-501" y="1514"/>
      <point x="-372" y="1424"/>
      <point x="-300" y="1268"/>
      <point x="-302" y="1170" type="qcurve"/>
      <point x="-404" y="1170" type="line"/>
      <point x="-398" y="1281"/>
      <point x="-500" y="1418"/>
      <point x="-584" y="1418" type="qcurve"/>
      <point x="-669" y="1418"/>
      <point x="-772" y="1281"/>
      <point x="-768" y="1170" type="qcurve"/>
    </contour>
  </outline>
</glyph>
<glyph name="dblgravecomb.narrow" format="2">
  <anchor x="-586" y="960" name="top"/>
  <outline>
    <contour>
      <point x="-394" y="1170" type="line"/>
      <point x="-500" y="1170" type="line"/>
      <point x="-620" y="1504" type="line"/>
      <point x="-502" y="1504" type="line"/>
    </contour>
    <contour>
      <point x="-670" y="1170" type="line"/>
      <point x="-774" y="1170" type="line"/>
      <point x="-894" y="1504" type="line"/>
      <point x="-778" y="1504" type="line"/>
    </contour>
  </outline>
</glyph>
<glyph name="dieresiscomb.case" format="2">
  <anchor x="-790" y="1398" name="top"/>
  <anchor x="-790" y="1704" name="top.1"/>
  <outline>
    <contour>
      <point x="-976" y="1584" type="qcurve"/>
      <point x="-1016" y="1584"/>
      <point x="-1072" y="1639"/>
      <point x="-1072" y="1676" type="qcurve"/>
      <point x="-1072" y="1701"/>
      <point x="-1046" y="1742"/>
      <point x="-1002" y="1766"/>
      <point x="-976" y="1766" type="qcurve"/>
      <point x="-937" y="1766"/>
      <point x="-880" y="1714"/>
      <point x="-880" y="1676" type="qcurve"/>
      <point x="-880" y="1651"/>
      <point x="-905" y="1609"/>
      <point x="-949" y="1584"/>
    </contour>
    <contour>
      <point x="-602" y="1584" type="qcurve"/>
      <point x="-642" y="1584"/>
      <point x="-698" y="1639"/>
      <point x="-698" y="1676" type="qcurve"/>
      <point x="-698" y="1700"/>
      <point x="-672" y="1741"/>
      <point x="-629" y="1766"/>
      <point x="-602" y="1766" type="qcurve"/>
      <point x="-563" y="1766"/>
      <point x="-506" y="1714"/>
      <point x="-506" y="1676" type="qcurve"/>
      <point x="-506" y="1651"/>
      <point x="-532" y="1609"/>
      <point x="-576" y="1584"/>
    </contour>
  </outline>
</glyph>
<glyph name="dieresiscomb.narrow" format="2">
  <anchor x="-586" y="960" name="top"/>
  <anchor x="-586" y="1284" name="top.1"/>
  <outline>
    <contour>
      <point x="-718" y="1162" type="qcurve"/>
      <point x="-757" y="1162"/>
      <point x="-812" y="1217"/>
      <point x="-812" y="1256" type="qcurve"/>
      <point x="-812" y="1295"/>
      <point x="-757" y="1350"/>
      <point x="-718" y="1350" type="qcurve"/>
      <point x="-679" y="1350"/>
      <point x="-624" y="1295"/>
      <point x="-624" y="1256" type="qcurve"/>
      <point x="-624" y="1217"/>
      <point x="-679" y="1162"/>
    </contour>
    <contour>
      <point x="-454" y="1162" type="qcurve"/>
      <point x="-493" y="1162"/>
      <point x="-548" y="1217"/>
      <point x="-548" y="1256" type="qcurve"/>
      <point x="-548" y="1295"/>
      <point x="-493" y="1350"/>
      <point x="-454" y="1350" type="qcurve"/>
      <point x="-415" y="1350"/>
      <point x="-360" y="1295"/>
      <point x="-360" y="1256" type="qcurve"/>
      <point x="-360" y="1217"/>
      <point x="-415" y="1162"/>
    </contour>
  </outline>
</glyph>
<glyph name="dotlessj.calt" format="2">
  <advance width="452"/>
  <anchor x="226" y="960" name="top"/>
  <outline>
    <contour>
      <point x="94" y="-450" type="qcurve"/>
      <point x="59" y="-450"/>
      <point x="-4" y="-437"/>
      <point x="-30" y="-427" type="qcurve"/>
      <point x="1" y="-325" type="line"/>
      <point x="40" y="-342"/>
      <point x="78" y="-342" type="qcurve"/>
      <point x="131" y="-342"/>
      <point x="170" y="-277"/>
      <point x="170" y="-214" type="qcurve"/>
      <point x="170" y="960" type="line"/>
      <point x="282" y="960" type="line"/>
      <point x="282" y="-234" type="line"/>
      <point x="282" y="-344"/>
      <point x="182" y="-450"/>
    </contour>
  </outline>
</glyph>
<glyph name="hookabovecomb.narrow" format="2">
  <anchor x="-586" y="960" name="top"/>
  <outline>
    <contour>
      <point x="-642" y="1170" type="line"/>
      <point x="-672" y="1239"/>
      <point x="-634" y="1329"/>
      <point x="-564" y="1360" type="qcurve"/>
      <point x="-504" y="1387"/>
      <point x="-464" y="1422"/>
      <point x="-464" y="1456" type="qcurve"/>
      <point x="-464" y="1500"/>
      <point x="-538" y="1550"/>
      <point x="-594" y="1550" type="qcurve"/>
      <point x="-634" y="1550"/>
      <point x="-723" y="1528"/>
      <point x="-756" y="1508" type="qcurve"/>
      <point x="-786" y="1586" type="line"/>
      <point x="-742" y="1610"/>
      <point x="-636" y="1634"/>
      <point x="-584" y="1634" type="qcurve"/>
      <point x="-492" y="1634"/>
      <point x="-370" y="1543"/>
      <point x="-370" y="1474" type="qcurve"/>
      <point x="-370" y="1417"/>
      <point x="-423" y="1350"/>
      <point x="-494" y="1314" type="qcurve"/>
      <point x="-551" y="1284"/>
      <point x="-576" y="1229"/>
      <point x="-554" y="1170" type="qcurve"/>
    </contour>
  </outline>
</glyph>
<glyph name="horncomb.alt_case" format="2">
  <anchor x="-350" y="1400" name="horn"/>
  <outline>
    <contour>
      <point x="-250" y="1188" type="qcurve"/>
      <point x="-298" y="1188"/>
      <point x="-410" y="1231"/>
      <point x="-458" y="1256" type="qcurve"/>
      <point x="-458" y="1330" type="line"/>
      <point x="-411" y="1308"/>
      <point x="-306" y="1270"/>
      <point x="-270" y="1270" type="qcurve"/>
      <point x="-211" y="1270"/>
      <point x="-160" y="1332"/>
      <point x="-160" y="1380" type="qcurve"/>
      <point x="-160" y="1406"/>
      <point x="-186" y="1489"/>
      <point x="-224" y="1540" type="qcurve"/>
      <point x="-130" y="1580" type="line"/>
      <point x="-91" y="1532"/>
      <point x="-52" y="1429"/>
      <point x="-52" y="1382" type="qcurve"/>
      <point x="-52" y="1330"/>
      <point x="-97" y="1242"/>
      <point x="-185" y="1188"/>
    </contour>
  </outline>
</glyph>
<glyph name="horncomb.case" format="2">
  <anchor x="-436" y="1400" name="horn"/>
  <outline>
    <contour>
      <point x="-296" y="1228" type="qcurve"/>
      <point x="-343" y="1228"/>
      <point x="-460" y="1268"/>
      <point x="-597" y="1322"/>
      <point x="-752" y="1362"/>
      <point x="-838" y="1362" type="qcurve"/>
      <point x="-838" y="1430" type="line"/>
      <point x="-757" y="1430"/>
      <point x="-601" y="1394"/>
      <point x="-463" y="1346"/>
      <point x="-352" y="1310"/>
      <point x="-316" y="1310" type="qcurve"/>
      <point x="-257" y="1310"/>
      <point x="-206" y="1361"/>
      <point x="-206" y="1400" type="qcurve"/>
      <point x="-206" y="1423"/>
      <point x="-232" y="1495"/>
      <point x="-270" y="1540" type="qcurve"/>
      <point x="-176" y="1580" type="line"/>
      <point x="-137" y="1537"/>
      <point x="-98" y="1444"/>
      <point x="-98" y="1402" type="qcurve"/>
      <point x="-98" y="1355"/>
      <point x="-143" y="1276"/>
      <point x="-231" y="1228"/>
    </contour>
  </outline>
</glyph>
<glyph name="hungarumlautcomb.case" format="2">
  <anchor x="-788" y="1398" name="top"/>
  <outline>
    <contour>
      <point x="-668" y="1592" type="line"/>
      <point x="-478" y="1904" type="line"/>
      <point x="-358" y="1904" type="line"/>
      <point x="-560" y="1592" type="line"/>
    </contour>
    <contour>
      <point x="-1018" y="1592" type="line"/>
      <point x="-828" y="1904" type="line"/>
      <point x="-708" y="1904" type="line"/>
      <point x="-910" y="1592" type="line"/>
    </contour>
  </outline>
</glyph>
<glyph name="periodcentered.loclCAT.case" format="2">
  <outline>
    <contour>
      <point x="-270" y="630" type="qcurve"/>
      <point x="-316" y="630"/>
      <point x="-380" y="689"/>
      <point x="-380" y="734" type="qcurve"/>
      <point x="-380" y="764"/>
      <point x="-351" y="811"/>
      <point x="-301" y="838"/>
      <point x="-270" y="838" type="qcurve"/>
      <point x="-223" y="838"/>
      <point x="-160" y="779"/>
      <point x="-160" y="734" type="qcurve"/>
      <point x="-160" y="704"/>
      <point x="-189" y="657"/>
      <point x="-239" y="630"/>
    </contour>
  </outline>
</glyph>
<glyph name="softcyr.loclBGR" format="2">
  <advance width="1062"/>
  <outline>
    <contour>
      <point x="562" y="-20" type="qcurve"/>
      <point x="443" y="-20"/>
      <point x="257" y="69"/>
      <point x="150" y="232"/>
      <point x="150" y="344" type="qcurve"/>
      <point x="150" y="960" type="line"/>
      <point x="262" y="960" type="line"/>
      <point x="262" y="526" type="line"/>
      <point x="248" y="550" type="line"/>
      <point x="287" y="619"/>
      <point x="473" y="704"/>
      <point x="576" y="704" type="qcurve"/>
      <point x="694" y="704"/>
      <point x="877" y="606"/>
      <point x="982" y="441"/>
      <point x="982" y="342" type="qcurve"/>
      <point x="982" y="242"/>
      <point x="878" y="78"/>
      <point x="689" y="-20"/>
    </contour>
    <contour>
      <point x="562" y="82" type="qcurve"/>
      <point x="649" y="82"/>
      <point x="786" y="146"/>
      <point x="864" y="263"/>
      <point x="864" y="342" type="qcurve"/>
      <point x="864" y="461"/>
      <point x="693" y="600"/>
      <point x="562" y="600" type="qcurve"/>
      <point x="476" y="600"/>
      <point x="341" y="537"/>
      <point x="264" y="421"/>
      <point x="264" y="342" type="qcurve"/>
      <point x="264" y="222"/>
      <point x="433" y="82"/>
    </contour>
  </outline>
</glyph>
<glyph name="tildecomb.case" format="2">
  <anchor x="-788" y="1398" name="top"/>
  <anchor x="-788" y="1758" name="top.1"/>
  <outline>
    <contour>
      <point x="-1066" y="1632" type="qcurve"/>
      <point x="-1142" y="1676" type="line"/>
      <point x="-1110" y="1753"/>
      <point x="-1007" y="1846"/>
      <point x="-938" y="1846" type="qcurve"/>
      <point x="-881" y="1846"/>
      <point x="-778" y="1797"/>
      <point x="-683" y="1748"/>
      <point x="-638" y="1748" type="qcurve"/>
      <point x="-594" y="1748"/>
      <point x="-531" y="1810"/>
      <point x="-510" y="1864" type="qcurve"/>
      <point x="-434" y="1818" type="line"/>
      <point x="-467" y="1740"/>
      <point x="-574" y="1652"/>
      <point x="-640" y="1652" type="qcurve"/>
      <point x="-696" y="1652"/>
      <point x="-798" y="1700"/>
      <point x="-893" y="1748"/>
      <point x="-938" y="1748" type="qcurve"/>
      <point x="-980" y="1748"/>
      <point x="-1043" y="1691"/>
    </contour>
  </outline>
</glyph>
<glyph name="tildecomb.narrow" format="2">
  <anchor x="-584" y="960" name="top"/>
  <anchor x="-584" y="1344" name="top.1"/>
  <outline>
    <contour>
      <point x="-816" y="1216" type="qcurve"/>
      <point x="-882" y="1260" type="line"/>
      <point x="-855" y="1340"/>
      <point x="-768" y="1440"/>
      <point x="-708" y="1440" type="qcurve"/>
      <point x="-660" y="1440"/>
      <point x="-575" y="1387"/>
      <point x="-497" y="1334"/>
      <point x="-460" y="1334" type="qcurve"/>
      <point x="-425" y="1334"/>
      <point x="-370" y="1402"/>
      <point x="-354" y="1460" type="qcurve"/>
      <point x="-288" y="1414" type="line"/>
      <point x="-313" y="1330"/>
      <point x="-404" y="1236"/>
      <point x="-460" y="1236" type="qcurve"/>
      <point x="-508" y="1236"/>
      <point x="-593" y="1288"/>
      <point x="-671" y="1340"/>
      <point x="-708" y="1340" type="qcurve"/>
      <point x="-745" y="1340"/>
      <point x="-798" y="1273"/>
    </contour>
  </outline>
</glyph>
<glyph name="yucyr.loclBGR" format="2">
  <advance width="1634"/>
  <anchor x="226" y="1440" name="top"/>
  <anchor x="282" y="1440" name="Anchor_2"/>
  <anchor x="226" y="0" name="bottom"/>
  <outline>
    <contour>
      <point x="1048" y="-30" type="qcurve"/>
      <point x="903" y="-30"/>
      <point x="674" y="109"/>
      <point x="542" y="341"/>
      <point x="542" y="480" type="qcurve"/>
      <point x="542" y="584"/>
      <point x="618" y="769"/>
      <point x="755" y="910"/>
      <point x="939" y="990"/>
      <point x="1048" y="990" type="qcurve"/>
      <point x="1193" y="990"/>
      <point x="1422" y="851"/>
      <point x="1554" y="619"/>
      <point x="1554" y="480" type="qcurve"/>
      <point x="1554" y="376"/>
      <point x="1478" y="191"/>
      <point x="1341" y="50"/>
      <point x="1157" y="-30"/>
    </contour>
    <contour>
      <point x="1048" y="78" type="qcurve"/>
      <point x="1161" y="78"/>
      <point x="1335" y="177"/>
      <point x="1434" y="357"/>
      <point x="1434" y="480" type="qcurve"/>
      <point x="1434" y="603"/>
      <point x="1335" y="784"/>
      <point x="1161" y="882"/>
      <point x="1048" y="882" type="qcurve"/>
      <point x="935" y="882"/>
      <point x="761" y="784"/>
      <point x="662" y="603"/>
      <point x="662" y="480" type="qcurve"/>
      <point x="662" y="357"/>
      <point x="761" y="177"/>
      <point x="935" y="78"/>
    </contour>
    <contour>
      <point x="254" y="564" type="line"/>
      <point x="624" y="564" type="line"/>
      <point x="624" y="460" type="line"/>
      <point x="254" y="460" type="line"/>
    </contour>
    <contour>
      <point x="170" y="0" type="line"/>
      <point x="170" y="1440" type="line"/>
      <point x="282" y="1440" type="line"/>
      <point x="282" y="0" type="line"/>
    </contour>
  </outline>
</glyph>
<glyph name="zecyr.loclBGR" format="2">
  <advance width="1001"/>
  <anchor x="466" y="960" name="top"/>
  <anchor x="478" y="-420" name="bottom"/>
  <outline>
    <contour>
      <point x="450" y="-450" type="qcurve"/>
      <point x="369" y="-450"/>
      <point x="215" y="-414"/>
      <point x="79" y="-345"/>
      <point x="26" y="-296" type="qcurve"/>
      <point x="90" y="-200" type="line"/>
      <point x="155" y="-267"/>
      <point x="342" y="-342"/>
      <point x="450" y="-342" type="qcurve"/>
      <point x="603" y="-342"/>
      <point x="788" y="-191"/>
      <point x="788" y="-56" type="qcurve"/>
      <point x="788" y="48"/>
      <point x="692" y="180"/>
      <point x="530" y="242"/>
      <point x="430" y="242" type="qcurve"/>
      <point x="234" y="242" type="line"/>
      <point x="234" y="346" type="line"/>
      <point x="422" y="346" type="line"/>
      <point x="513" y="346"/>
      <point x="662" y="416"/>
      <point x="750" y="540"/>
      <point x="750" y="622" type="qcurve"/>
      <point x="750" y="744"/>
      <point x="594" y="880"/>
      <point x="456" y="880" type="qcurve"/>
      <point x="362" y="880"/>
      <point x="195" y="810"/>
      <point x="130" y="748" type="qcurve"/>
      <point x="72" y="834" type="line"/>
      <point x="146" y="906"/>
      <point x="347" y="988"/>
      <point x="462" y="988" type="qcurve"/>
      <point x="587" y="988"/>
      <point x="770" y="900"/>
      <point x="870" y="743"/>
      <point x="870" y="640" type="qcurve"/>
      <point x="870" y="565"/>
      <point x="807" y="428"/>
      <point x="701" y="327"/>
      <point x="638" y="306" type="qcurve"/>
      <point x="754" y="275"/>
      <point x="910" y="88"/>
      <point x="908" y="-56" type="qcurve"/>
      <point x="907" y="-172"/>
      <point x="785" y="-350"/>
      <point x="578" y="-450"/>
    </contour>
  </outline>
</glyph>
